<svg width="688" height="114" viewBox="0 0 688 114" fill="none" xmlns="http://www.w3.org/2000/svg">
<path d="M8.39844 24.3203V37H2.46875V2.875H15.5234C19.3359 2.875 22.3594 3.86719 24.5938 5.85156C26.8438 7.83594 27.9688 10.4609 27.9688 13.7266C27.9688 17.0703 26.8672 19.6719 24.6641 21.5312C22.4766 23.3906 19.4062 24.3203 15.4531 24.3203H8.39844ZM8.39844 19.5625H15.5234C17.6328 19.5625 19.2422 19.0703 20.3516 18.0859C21.4609 17.0859 22.0156 15.6484 22.0156 13.7734C22.0156 11.9297 21.4531 10.4609 20.3281 9.36719C19.2031 8.25781 17.6562 7.6875 15.6875 7.65625H8.39844V19.5625ZM47.4922 37C47.2422 36.5156 47.0234 35.7266 46.8359 34.6328C45.0234 36.5234 42.8047 37.4688 40.1797 37.4688C37.6328 37.4688 35.5547 36.7422 33.9453 35.2891C32.3359 33.8359 31.5312 32.0391 31.5312 29.8984C31.5312 27.1953 32.5312 25.125 34.5312 23.6875C36.5469 22.2344 39.4219 21.5078 43.1562 21.5078H46.6484V19.8438C46.6484 18.5312 46.2812 17.4844 45.5469 16.7031C44.8125 15.9062 43.6953 15.5078 42.1953 15.5078C40.8984 15.5078 39.8359 15.8359 39.0078 16.4922C38.1797 17.1328 37.7656 17.9531 37.7656 18.9531H32.0703C32.0703 17.5625 32.5312 16.2656 33.4531 15.0625C34.375 13.8438 35.625 12.8906 37.2031 12.2031C38.7969 11.5156 40.5703 11.1719 42.5234 11.1719C45.4922 11.1719 47.8594 11.9219 49.625 13.4219C51.3906 14.9062 52.2969 17 52.3438 19.7031V31.1406C52.3438 33.4219 52.6641 35.2422 53.3047 36.6016V37H47.4922ZM41.2344 32.8984C42.3594 32.8984 43.4141 32.625 44.3984 32.0781C45.3984 31.5312 46.1484 30.7969 46.6484 29.875V25.0938H43.5781C41.4688 25.0938 39.8828 25.4609 38.8203 26.1953C37.7578 26.9297 37.2266 27.9688 37.2266 29.3125C37.2266 30.4062 37.5859 31.2812 38.3047 31.9375C39.0391 32.5781 40.0156 32.8984 41.2344 32.8984ZM71.5859 16.8438C70.8359 16.7188 70.0625 16.6562 69.2656 16.6562C66.6562 16.6562 64.8984 17.6562 63.9922 19.6562V37H58.2969V11.6406H63.7344L63.875 14.4766C65.25 12.2734 67.1562 11.1719 69.5938 11.1719C70.4062 11.1719 71.0781 11.2813 71.6094 11.5L71.5859 16.8438ZM89.6328 37C89.3828 36.5156 89.1641 35.7266 88.9766 34.6328C87.1641 36.5234 84.9453 37.4688 82.3203 37.4688C79.7734 37.4688 77.6953 36.7422 76.0859 35.2891C74.4766 33.8359 73.6719 32.0391 73.6719 29.8984C73.6719 27.1953 74.6719 25.125 76.6719 23.6875C78.6875 22.2344 81.5625 21.5078 85.2969 21.5078H88.7891V19.8438C88.7891 18.5312 88.4219 17.4844 87.6875 16.7031C86.9531 15.9062 85.8359 15.5078 84.3359 15.5078C83.0391 15.5078 81.9766 15.8359 81.1484 16.4922C80.3203 17.1328 79.9062 17.9531 79.9062 18.9531H74.2109C74.2109 17.5625 74.6719 16.2656 75.5938 15.0625C76.5156 13.8438 77.7656 12.8906 79.3438 12.2031C80.9375 11.5156 82.7109 11.1719 84.6641 11.1719C87.6328 11.1719 90 11.9219 91.7656 13.4219C93.5312 14.9062 94.4375 17 94.4844 19.7031V31.1406C94.4844 33.4219 94.8047 35.2422 95.4453 36.6016V37H89.6328ZM83.375 32.8984C84.5 32.8984 85.5547 32.625 86.5391 32.0781C87.5391 31.5312 88.2891 30.7969 88.7891 29.875V25.0938H85.7188C83.6094 25.0938 82.0234 25.4609 80.9609 26.1953C79.8984 26.9297 79.3672 27.9688 79.3672 29.3125C79.3672 30.4062 79.7266 31.2812 80.4453 31.9375C81.1797 32.5781 82.1562 32.8984 83.375 32.8984ZM224.914 24.1094C224.914 20.1406 225.82 16.9922 227.633 14.6641C229.445 12.3359 231.898 11.1719 234.992 11.1719C237.82 11.1719 240.062 12.1641 241.719 14.1484L242.047 11.6406H247.109V46.75H241.414V34.8438C239.758 36.5938 237.602 37.4688 234.945 37.4688C231.914 37.4688 229.484 36.2891 227.656 33.9297C225.828 31.5547 224.914 28.2812 224.914 24.1094ZM230.609 24.6016C230.609 27.1953 231.117 29.2344 232.133 30.7188C233.164 32.1875 234.586 32.9219 236.398 32.9219C238.648 32.9219 240.32 31.9609 241.414 30.0391V18.5078C240.32 16.6641 238.664 15.7422 236.445 15.7422C234.633 15.7422 233.203 16.4688 232.156 17.9219C231.125 19.375 230.609 21.6016 230.609 24.6016ZM268.625 34.5156C266.953 36.4844 264.578 37.4688 261.5 37.4688C258.75 37.4688 256.664 36.6641 255.242 35.0547C253.836 33.4453 253.133 31.1172 253.133 28.0703V11.6406H258.828V28C258.828 31.2188 260.164 32.8281 262.836 32.8281C265.602 32.8281 267.469 31.8359 268.438 29.8516V11.6406H274.133V37H268.766L268.625 34.5156ZM291.102 37.4688C287.492 37.4688 284.562 36.3359 282.312 34.0703C280.078 31.7891 278.961 28.7578 278.961 24.9766V24.2734C278.961 21.7422 279.445 19.4844 280.414 17.5C281.398 15.5 282.773 13.9453 284.539 12.8359C286.305 11.7266 288.273 11.1719 290.445 11.1719C293.898 11.1719 296.562 12.2734 298.438 14.4766C300.328 16.6797 301.273 19.7969 301.273 23.8281V26.125H284.703C284.875 28.2188 285.57 29.875 286.789 31.0938C288.023 32.3125 289.57 32.9219 291.43 32.9219C294.039 32.9219 296.164 31.8672 297.805 29.7578L300.875 32.6875C299.859 34.2031 298.5 35.3828 296.797 36.2266C295.109 37.0547 293.211 37.4688 291.102 37.4688ZM290.422 15.7422C288.859 15.7422 287.594 16.2891 286.625 17.3828C285.672 18.4766 285.062 20 284.797 21.9531H295.648V21.5312C295.523 19.625 295.016 18.1875 294.125 17.2188C293.234 16.2344 292 15.7422 290.422 15.7422ZM316.602 24.1328C316.602 20.2266 317.508 17.0938 319.32 14.7344C321.133 12.3594 323.562 11.1719 326.609 11.1719C329.297 11.1719 331.469 12.1094 333.125 13.9844V1H338.82V37H333.664L333.383 34.375C331.68 36.4375 329.406 37.4688 326.562 37.4688C323.594 37.4688 321.188 36.2734 319.344 33.8828C317.516 31.4922 316.602 28.2422 316.602 24.1328ZM322.297 24.625C322.297 27.2031 322.789 29.2188 323.773 30.6719C324.773 32.1094 326.188 32.8281 328.016 32.8281C330.344 32.8281 332.047 31.7891 333.125 29.7109V18.8828C332.078 16.8516 330.391 15.8359 328.062 15.8359C326.219 15.8359 324.797 16.5703 323.797 18.0391C322.797 19.4922 322.297 21.6875 322.297 24.625ZM355.93 37.4688C352.32 37.4688 349.391 36.3359 347.141 34.0703C344.906 31.7891 343.789 28.7578 343.789 24.9766V24.2734C343.789 21.7422 344.273 19.4844 345.242 17.5C346.227 15.5 347.602 13.9453 349.367 12.8359C351.133 11.7266 353.102 11.1719 355.273 11.1719C358.727 11.1719 361.391 12.2734 363.266 14.4766C365.156 16.6797 366.102 19.7969 366.102 23.8281V26.125H349.531C349.703 28.2188 350.398 29.875 351.617 31.0938C352.852 32.3125 354.398 32.9219 356.258 32.9219C358.867 32.9219 360.992 31.8672 362.633 29.7578L365.703 32.6875C364.688 34.2031 363.328 35.3828 361.625 36.2266C359.938 37.0547 358.039 37.4688 355.93 37.4688ZM355.25 15.7422C353.688 15.7422 352.422 16.2891 351.453 17.3828C350.5 18.4766 349.891 20 349.625 21.9531H360.477V21.5312C360.352 19.625 359.844 18.1875 358.953 17.2188C358.062 16.2344 356.828 15.7422 355.25 15.7422ZM384.758 30.1094C384.758 29.0938 384.336 28.3203 383.492 27.7891C382.664 27.2578 381.281 26.7891 379.344 26.3828C377.406 25.9766 375.789 25.4609 374.492 24.8359C371.648 23.4609 370.227 21.4688 370.227 18.8594C370.227 16.6719 371.148 14.8438 372.992 13.375C374.836 11.9062 377.18 11.1719 380.023 11.1719C383.055 11.1719 385.5 11.9219 387.359 13.4219C389.234 14.9219 390.172 16.8672 390.172 19.2578H384.477C384.477 18.1641 384.07 17.2578 383.258 16.5391C382.445 15.8047 381.367 15.4375 380.023 15.4375C378.773 15.4375 377.75 15.7266 376.953 16.3047C376.172 16.8828 375.781 17.6562 375.781 18.625C375.781 19.5 376.148 20.1797 376.883 20.6641C377.617 21.1484 379.102 21.6406 381.336 22.1406C383.57 22.625 385.32 23.2109 386.586 23.8984C387.867 24.5703 388.812 25.3828 389.422 26.3359C390.047 27.2891 390.359 28.4453 390.359 29.8047C390.359 32.0859 389.414 33.9375 387.523 35.3594C385.633 36.7656 383.156 37.4688 380.094 37.4688C378.016 37.4688 376.164 37.0938 374.539 36.3438C372.914 35.5938 371.648 34.5625 370.742 33.25C369.836 31.9375 369.383 30.5234 369.383 29.0078H374.914C374.992 30.3516 375.5 31.3906 376.438 32.125C377.375 32.8438 378.617 33.2031 380.164 33.2031C381.664 33.2031 382.805 32.9219 383.586 32.3594C384.367 31.7812 384.758 31.0312 384.758 30.1094ZM406.508 37.4688C402.898 37.4688 399.969 36.3359 397.719 34.0703C395.484 31.7891 394.367 28.7578 394.367 24.9766V24.2734C394.367 21.7422 394.852 19.4844 395.82 17.5C396.805 15.5 398.18 13.9453 399.945 12.8359C401.711 11.7266 403.68 11.1719 405.852 11.1719C409.305 11.1719 411.969 12.2734 413.844 14.4766C415.734 16.6797 416.68 19.7969 416.68 23.8281V26.125H400.109C400.281 28.2188 400.977 29.875 402.195 31.0938C403.43 32.3125 404.977 32.9219 406.836 32.9219C409.445 32.9219 411.57 31.8672 413.211 29.7578L416.281 32.6875C415.266 34.2031 413.906 35.3828 412.203 36.2266C410.516 37.0547 408.617 37.4688 406.508 37.4688ZM405.828 15.7422C404.266 15.7422 403 16.2891 402.031 17.3828C401.078 18.4766 400.469 20 400.203 21.9531H411.055V21.5312C410.93 19.625 410.422 18.1875 409.531 17.2188C408.641 16.2344 407.406 15.7422 405.828 15.7422ZM427.062 11.6406V39.25C427.062 41.8438 426.414 43.8203 425.117 45.1797C423.836 46.5547 421.953 47.2422 419.469 47.2422C418.422 47.2422 417.414 47.1094 416.445 46.8438V42.3438C417.039 42.4844 417.711 42.5547 418.461 42.5547C420.352 42.5547 421.32 41.5234 421.367 39.4609V11.6406H427.062ZM420.875 5.05469C420.875 4.17969 421.148 3.45313 421.695 2.875C422.258 2.29687 423.055 2.00781 424.086 2.00781C425.117 2.00781 425.914 2.29687 426.477 2.875C427.039 3.45313 427.32 4.17969 427.32 5.05469C427.32 5.91406 427.039 6.63281 426.477 7.21094C425.914 7.77344 425.117 8.05469 424.086 8.05469C423.055 8.05469 422.258 7.77344 421.695 7.21094C421.148 6.63281 420.875 5.91406 420.875 5.05469ZM448.32 37C448.07 36.5156 447.852 35.7266 447.664 34.6328C445.852 36.5234 443.633 37.4688 441.008 37.4688C438.461 37.4688 436.383 36.7422 434.773 35.2891C433.164 33.8359 432.359 32.0391 432.359 29.8984C432.359 27.1953 433.359 25.125 435.359 23.6875C437.375 22.2344 440.25 21.5078 443.984 21.5078H447.477V19.8438C447.477 18.5312 447.109 17.4844 446.375 16.7031C445.641 15.9062 444.523 15.5078 443.023 15.5078C441.727 15.5078 440.664 15.8359 439.836 16.4922C439.008 17.1328 438.594 17.9531 438.594 18.9531H432.898C432.898 17.5625 433.359 16.2656 434.281 15.0625C435.203 13.8438 436.453 12.8906 438.031 12.2031C439.625 11.5156 441.398 11.1719 443.352 11.1719C446.32 11.1719 448.688 11.9219 450.453 13.4219C452.219 14.9062 453.125 17 453.172 19.7031V31.1406C453.172 33.4219 453.492 35.2422 454.133 36.6016V37H448.32ZM442.062 32.8984C443.188 32.8984 444.242 32.625 445.227 32.0781C446.227 31.5312 446.977 30.7969 447.477 29.875V25.0938H444.406C442.297 25.0938 440.711 25.4609 439.648 26.1953C438.586 26.9297 438.055 27.9688 438.055 29.3125C438.055 30.4062 438.414 31.2812 439.133 31.9375C439.867 32.5781 440.844 32.8984 442.062 32.8984ZM0.851562 100.086C0.851562 97.6016 1.34375 95.3672 2.32812 93.3828C3.3125 91.3828 4.69531 89.8516 6.47656 88.7891C8.25781 87.7109 10.3047 87.1719 12.6172 87.1719C16.0391 87.1719 18.8125 88.2734 20.9375 90.4766C23.0781 92.6797 24.2344 95.6016 24.4062 99.2422L24.4297 100.578C24.4297 103.078 23.9453 105.312 22.9766 107.281C22.0234 109.25 20.6484 110.773 18.8516 111.852C17.0703 112.93 15.0078 113.469 12.6641 113.469C9.08594 113.469 6.21875 112.281 4.0625 109.906C1.92188 107.516 0.851562 104.336 0.851562 100.367V100.086ZM6.54688 100.578C6.54688 103.188 7.08594 105.234 8.16406 106.719C9.24219 108.188 10.7422 108.922 12.6641 108.922C14.5859 108.922 16.0781 108.172 17.1406 106.672C18.2188 105.172 18.7578 102.977 18.7578 100.086C18.7578 97.5234 18.2031 95.4922 17.0938 93.9922C16 92.4922 14.5078 91.7422 12.6172 91.7422C10.7578 91.7422 9.28125 92.4844 8.1875 93.9688C7.09375 95.4375 6.54688 97.6406 6.54688 100.578ZM34.5312 87.6406L34.6953 90.5703C36.5703 88.3047 39.0312 87.1719 42.0781 87.1719C47.3594 87.1719 50.0469 90.1953 50.1406 96.2422V113H44.4453V96.5703C44.4453 94.9609 44.0938 93.7734 43.3906 93.0078C42.7031 92.2266 41.5703 91.8359 39.9922 91.8359C37.6953 91.8359 35.9844 92.875 34.8594 94.9531V113H29.1641V87.6406H34.5312ZM62.0234 113H56.3281V77H62.0234V113ZM74.3047 113H68.6094V87.6406H74.3047V113ZM68.2578 81.0547C68.2578 80.1797 68.5312 79.4531 69.0781 78.875C69.6406 78.2969 70.4375 78.0078 71.4688 78.0078C72.5 78.0078 73.2969 78.2969 73.8594 78.875C74.4219 79.4531 74.7031 80.1797 74.7031 81.0547C74.7031 81.9141 74.4219 82.6328 73.8594 83.2109C73.2969 83.7734 72.5 84.0547 71.4688 84.0547C70.4375 84.0547 69.6406 83.7734 69.0781 83.2109C68.5312 82.6328 68.2578 81.9141 68.2578 81.0547ZM85.8125 87.6406L85.9766 90.5703C87.8516 88.3047 90.3125 87.1719 93.3594 87.1719C98.6406 87.1719 101.328 90.1953 101.422 96.2422V113H95.7266V96.5703C95.7266 94.9609 95.375 93.7734 94.6719 93.0078C93.9844 92.2266 92.8516 91.8359 91.2734 91.8359C88.9766 91.8359 87.2656 92.875 86.1406 94.9531V113H80.4453V87.6406H85.8125ZM118.414 113.469C114.805 113.469 111.875 112.336 109.625 110.07C107.391 107.789 106.273 104.758 106.273 100.977V100.273C106.273 97.7422 106.758 95.4844 107.727 93.5C108.711 91.5 110.086 89.9453 111.852 88.8359C113.617 87.7266 115.586 87.1719 117.758 87.1719C121.211 87.1719 123.875 88.2734 125.75 90.4766C127.641 92.6797 128.586 95.7969 128.586 99.8281V102.125H112.016C112.188 104.219 112.883 105.875 114.102 107.094C115.336 108.312 116.883 108.922 118.742 108.922C121.352 108.922 123.477 107.867 125.117 105.758L128.188 108.688C127.172 110.203 125.812 111.383 124.109 112.227C122.422 113.055 120.523 113.469 118.414 113.469ZM117.734 91.7422C116.172 91.7422 114.906 92.2891 113.938 93.3828C112.984 94.4766 112.375 96 112.109 97.9531H122.961V97.5312C122.836 95.625 122.328 94.1875 121.438 93.2188C120.547 92.2344 119.312 91.7422 117.734 91.7422ZM156.148 113.469C152.539 113.469 149.609 112.336 147.359 110.07C145.125 107.789 144.008 104.758 144.008 100.977V100.273C144.008 97.7422 144.492 95.4844 145.461 93.5C146.445 91.5 147.82 89.9453 149.586 88.8359C151.352 87.7266 153.32 87.1719 155.492 87.1719C158.945 87.1719 161.609 88.2734 163.484 90.4766C165.375 92.6797 166.32 95.7969 166.32 99.8281V102.125H149.75C149.922 104.219 150.617 105.875 151.836 107.094C153.07 108.312 154.617 108.922 156.477 108.922C159.086 108.922 161.211 107.867 162.852 105.758L165.922 108.688C164.906 110.203 163.547 111.383 161.844 112.227C160.156 113.055 158.258 113.469 156.148 113.469ZM155.469 91.7422C153.906 91.7422 152.641 92.2891 151.672 93.3828C150.719 94.4766 150.109 96 149.844 97.9531H160.695V97.5312C160.57 95.625 160.062 94.1875 159.172 93.2188C158.281 92.2344 157.047 91.7422 155.469 91.7422ZM189.852 81.4766V87.6406H194.328V91.8594H189.852V106.016C189.852 106.984 190.039 107.688 190.414 108.125C190.805 108.547 191.492 108.758 192.477 108.758C193.133 108.758 193.797 108.68 194.469 108.523V112.93C193.172 113.289 191.922 113.469 190.719 113.469C186.344 113.469 184.156 111.055 184.156 106.227V91.8594H179.984V87.6406H184.156V81.4766H189.852ZM209.867 113.469C206.258 113.469 203.328 112.336 201.078 110.07C198.844 107.789 197.727 104.758 197.727 100.977V100.273C197.727 97.7422 198.211 95.4844 199.18 93.5C200.164 91.5 201.539 89.9453 203.305 88.8359C205.07 87.7266 207.039 87.1719 209.211 87.1719C212.664 87.1719 215.328 88.2734 217.203 90.4766C219.094 92.6797 220.039 95.7969 220.039 99.8281V102.125H203.469C203.641 104.219 204.336 105.875 205.555 107.094C206.789 108.312 208.336 108.922 210.195 108.922C212.805 108.922 214.93 107.867 216.57 105.758L219.641 108.688C218.625 110.203 217.266 111.383 215.562 112.227C213.875 113.055 211.977 113.469 209.867 113.469ZM209.188 91.7422C207.625 91.7422 206.359 92.2891 205.391 93.3828C204.438 94.4766 203.828 96 203.562 97.9531H214.414V97.5312C214.289 95.625 213.781 94.1875 212.891 93.2188C212 92.2344 210.766 91.7422 209.188 91.7422ZM237.758 92.8438C237.008 92.7188 236.234 92.6562 235.438 92.6562C232.828 92.6562 231.07 93.6562 230.164 95.6562V113H224.469V87.6406H229.906L230.047 90.4766C231.422 88.2734 233.328 87.1719 235.766 87.1719C236.578 87.1719 237.25 87.2812 237.781 87.5L237.758 92.8438ZM498.43 113H492.734V87.6406H498.43V113ZM492.383 81.0547C492.383 80.1797 492.656 79.4531 493.203 78.875C493.766 78.2969 494.562 78.0078 495.594 78.0078C496.625 78.0078 497.422 78.2969 497.984 78.875C498.547 79.4531 498.828 80.1797 498.828 81.0547C498.828 81.9141 498.547 82.6328 497.984 83.2109C497.422 83.7734 496.625 84.0547 495.594 84.0547C494.562 84.0547 493.766 83.7734 493.203 83.2109C492.656 82.6328 492.383 81.9141 492.383 81.0547ZM510.008 87.6406L510.172 90.2891C511.953 88.2109 514.391 87.1719 517.484 87.1719C520.875 87.1719 523.195 88.4688 524.445 91.0625C526.289 88.4688 528.883 87.1719 532.227 87.1719C535.023 87.1719 537.102 87.9453 538.461 89.4922C539.836 91.0391 540.539 93.3203 540.57 96.3359V113H534.875V96.5C534.875 94.8906 534.523 93.7109 533.82 92.9609C533.117 92.2109 531.953 91.8359 530.328 91.8359C529.031 91.8359 527.969 92.1875 527.141 92.8906C526.328 93.5781 525.758 94.4844 525.43 95.6094L525.453 113H519.758V96.3125C519.68 93.3281 518.156 91.8359 515.188 91.8359C512.906 91.8359 511.289 92.7656 510.336 94.625V113H504.641V87.6406H510.008ZM557.586 113.469C553.977 113.469 551.047 112.336 548.797 110.07C546.562 107.789 545.445 104.758 545.445 100.977V100.273C545.445 97.7422 545.93 95.4844 546.898 93.5C547.883 91.5 549.258 89.9453 551.023 88.8359C552.789 87.7266 554.758 87.1719 556.93 87.1719C560.383 87.1719 563.047 88.2734 564.922 90.4766C566.812 92.6797 567.758 95.7969 567.758 99.8281V102.125H551.188C551.359 104.219 552.055 105.875 553.273 107.094C554.508 108.312 556.055 108.922 557.914 108.922C560.523 108.922 562.648 107.867 564.289 105.758L567.359 108.688C566.344 110.203 564.984 111.383 563.281 112.227C561.594 113.055 559.695 113.469 557.586 113.469ZM556.906 91.7422C555.344 91.7422 554.078 92.2891 553.109 93.3828C552.156 94.4766 551.547 96 551.281 97.9531H562.133V97.5312C562.008 95.625 561.5 94.1875 560.609 93.2188C559.719 92.2344 558.484 91.7422 556.906 91.7422ZM571.133 100.133C571.133 96.2266 572.039 93.0938 573.852 90.7344C575.664 88.3594 578.094 87.1719 581.141 87.1719C583.828 87.1719 586 88.1094 587.656 89.9844V77H593.352V113H588.195L587.914 110.375C586.211 112.438 583.938 113.469 581.094 113.469C578.125 113.469 575.719 112.273 573.875 109.883C572.047 107.492 571.133 104.242 571.133 100.133ZM576.828 100.625C576.828 103.203 577.32 105.219 578.305 106.672C579.305 108.109 580.719 108.828 582.547 108.828C584.875 108.828 586.578 107.789 587.656 105.711V94.8828C586.609 92.8516 584.922 91.8359 582.594 91.8359C580.75 91.8359 579.328 92.5703 578.328 94.0391C577.328 95.4922 576.828 97.6875 576.828 100.625ZM605.352 113H599.656V87.6406H605.352V113ZM599.305 81.0547C599.305 80.1797 599.578 79.4531 600.125 78.875C600.688 78.2969 601.484 78.0078 602.516 78.0078C603.547 78.0078 604.344 78.2969 604.906 78.875C605.469 79.4531 605.75 80.1797 605.75 81.0547C605.75 81.9141 605.469 82.6328 604.906 83.2109C604.344 83.7734 603.547 84.0547 602.516 84.0547C601.484 84.0547 600.688 83.7734 600.125 83.2109C599.578 82.6328 599.305 81.9141 599.305 81.0547ZM626.727 113C626.477 112.516 626.258 111.727 626.07 110.633C624.258 112.523 622.039 113.469 619.414 113.469C616.867 113.469 614.789 112.742 613.18 111.289C611.57 109.836 610.766 108.039 610.766 105.898C610.766 103.195 611.766 101.125 613.766 99.6875C615.781 98.2344 618.656 97.5078 622.391 97.5078H625.883V95.8438C625.883 94.5312 625.516 93.4844 624.781 92.7031C624.047 91.9062 622.93 91.5078 621.43 91.5078C620.133 91.5078 619.07 91.8359 618.242 92.4922C617.414 93.1328 617 93.9531 617 94.9531H611.305C611.305 93.5625 611.766 92.2656 612.688 91.0625C613.609 89.8438 614.859 88.8906 616.438 88.2031C618.031 87.5156 619.805 87.1719 621.758 87.1719C624.727 87.1719 627.094 87.9219 628.859 89.4219C630.625 90.9062 631.531 93 631.578 95.7031V107.141C631.578 109.422 631.898 111.242 632.539 112.602V113H626.727ZM620.469 108.898C621.594 108.898 622.648 108.625 623.633 108.078C624.633 107.531 625.383 106.797 625.883 105.875V101.094H622.812C620.703 101.094 619.117 101.461 618.055 102.195C616.992 102.93 616.461 103.969 616.461 105.312C616.461 106.406 616.82 107.281 617.539 107.938C618.273 108.578 619.25 108.898 620.469 108.898ZM644.68 81.4766V87.6406H649.156V91.8594H644.68V106.016C644.68 106.984 644.867 107.688 645.242 108.125C645.633 108.547 646.32 108.758 647.305 108.758C647.961 108.758 648.625 108.68 649.297 108.523V112.93C648 113.289 646.75 113.469 645.547 113.469C641.172 113.469 638.984 111.055 638.984 106.227V91.8594H634.812V87.6406H638.984V81.4766H644.68ZM651.758 100.086C651.758 97.6016 652.25 95.3672 653.234 93.3828C654.219 91.3828 655.602 89.8516 657.383 88.7891C659.164 87.7109 661.211 87.1719 663.523 87.1719C666.945 87.1719 669.719 88.2734 671.844 90.4766C673.984 92.6797 675.141 95.6016 675.312 99.2422L675.336 100.578C675.336 103.078 674.852 105.312 673.883 107.281C672.93 109.25 671.555 110.773 669.758 111.852C667.977 112.93 665.914 113.469 663.57 113.469C659.992 113.469 657.125 112.281 654.969 109.906C652.828 107.516 651.758 104.336 651.758 100.367V100.086ZM657.453 100.578C657.453 103.188 657.992 105.234 659.07 106.719C660.148 108.188 661.648 108.922 663.57 108.922C665.492 108.922 666.984 108.172 668.047 106.672C669.125 105.172 669.664 102.977 669.664 100.086C669.664 97.5234 669.109 95.4922 668 93.9922C666.906 92.4922 665.414 91.7422 663.523 91.7422C661.664 91.7422 660.188 92.4844 659.094 93.9688C658 95.4375 657.453 97.6406 657.453 100.578ZM683.703 107C684.766 107 685.586 107.305 686.164 107.914C686.742 108.508 687.031 109.258 687.031 110.164C687.031 111.055 686.742 111.797 686.164 112.391C685.586 112.969 684.766 113.258 683.703 113.258C682.688 113.258 681.883 112.969 681.289 112.391C680.695 111.812 680.398 111.07 680.398 110.164C680.398 109.258 680.688 108.508 681.266 107.914C681.844 107.305 682.656 107 683.703 107Z" fill="black"/>
<path d="M121.344 29.7812L126.711 11.6406H132.594L123.805 37H118.859L110 11.6406H115.906L121.344 29.7812ZM134.727 24.0859C134.727 21.6016 135.219 19.3672 136.203 17.3828C137.188 15.3828 138.57 13.8516 140.352 12.7891C142.133 11.7109 144.18 11.1719 146.492 11.1719C149.914 11.1719 152.688 12.2734 154.812 14.4766C156.953 16.6797 158.109 19.6016 158.281 23.2422L158.305 24.5781C158.305 27.0781 157.82 29.3125 156.852 31.2812C155.898 33.25 154.523 34.7734 152.727 35.8516C150.945 36.9297 148.883 37.4688 146.539 37.4688C142.961 37.4688 140.094 36.2812 137.938 33.9062C135.797 31.5156 134.727 28.3359 134.727 24.3672V24.0859ZM140.422 24.5781C140.422 27.1875 140.961 29.2344 142.039 30.7188C143.117 32.1875 144.617 32.9219 146.539 32.9219C148.461 32.9219 149.953 32.1719 151.016 30.6719C152.094 29.1719 152.633 26.9766 152.633 24.0859C152.633 21.5234 152.078 19.4922 150.969 17.9922C149.875 16.4922 148.383 15.7422 146.492 15.7422C144.633 15.7422 143.156 16.4844 142.062 17.9688C140.969 19.4375 140.422 21.6406 140.422 24.5781ZM173.539 32.9219C174.961 32.9219 176.141 32.5078 177.078 31.6797C178.016 30.8516 178.516 29.8281 178.578 28.6094H183.945C183.883 30.1875 183.391 31.6641 182.469 33.0391C181.547 34.3984 180.297 35.4766 178.719 36.2734C177.141 37.0703 175.438 37.4688 173.609 37.4688C170.062 37.4688 167.25 36.3203 165.172 34.0234C163.094 31.7266 162.055 28.5547 162.055 24.5078V23.9219C162.055 20.0625 163.086 16.9766 165.148 14.6641C167.211 12.3359 170.023 11.1719 173.586 11.1719C176.602 11.1719 179.055 12.0547 180.945 13.8203C182.852 15.5703 183.852 17.875 183.945 20.7344H178.578C178.516 19.2812 178.016 18.0859 177.078 17.1484C176.156 16.2109 174.977 15.7422 173.539 15.7422C171.695 15.7422 170.273 16.4141 169.273 17.7578C168.273 19.0859 167.766 21.1094 167.75 23.8281V24.7422C167.75 27.4922 168.242 29.5469 169.227 30.9062C170.227 32.25 171.664 32.9219 173.539 32.9219ZM199.414 37.4688C195.805 37.4688 192.875 36.3359 190.625 34.0703C188.391 31.7891 187.273 28.7578 187.273 24.9766V24.2734C187.273 21.7422 187.758 19.4844 188.727 17.5C189.711 15.5 191.086 13.9453 192.852 12.8359C194.617 11.7266 196.586 11.1719 198.758 11.1719C202.211 11.1719 204.875 12.2734 206.75 14.4766C208.641 16.6797 209.586 19.7969 209.586 23.8281V26.125H193.016C193.188 28.2188 193.883 29.875 195.102 31.0938C196.336 32.3125 197.883 32.9219 199.742 32.9219C202.352 32.9219 204.477 31.8672 206.117 29.7578L209.188 32.6875C208.172 34.2031 206.812 35.3828 205.109 36.2266C203.422 37.0547 201.523 37.4688 199.414 37.4688ZM198.734 15.7422C197.172 15.7422 195.906 16.2891 194.938 17.3828C193.984 18.4766 193.375 20 193.109 21.9531H203.961V21.5312C203.836 19.625 203.328 18.1875 202.438 17.2188C201.547 16.2344 200.312 15.7422 198.734 15.7422ZM206.422 7.49219V7.75H201.852L198.336 4.09375L194.844 7.75H190.32V7.44531L196.672 0.976562H200.023L206.422 7.49219Z" fill="#BE0E02"/>
<path d="M480.031 29.7812L485.398 11.6406H491.281L482.492 37H477.547L468.688 11.6406H474.594L480.031 29.7812ZM505.695 37.4688C502.086 37.4688 499.156 36.3359 496.906 34.0703C494.672 31.7891 493.555 28.7578 493.555 24.9766V24.2734C493.555 21.7422 494.039 19.4844 495.008 17.5C495.992 15.5 497.367 13.9453 499.133 12.8359C500.898 11.7266 502.867 11.1719 505.039 11.1719C508.492 11.1719 511.156 12.2734 513.031 14.4766C514.922 16.6797 515.867 19.7969 515.867 23.8281V26.125H499.297C499.469 28.2188 500.164 29.875 501.383 31.0938C502.617 32.3125 504.164 32.9219 506.023 32.9219C508.633 32.9219 510.758 31.8672 512.398 29.7578L515.469 32.6875C514.453 34.2031 513.094 35.3828 511.391 36.2266C509.703 37.0547 507.805 37.4688 505.695 37.4688ZM505.016 15.7422C503.453 15.7422 502.188 16.2891 501.219 17.3828C500.266 18.4766 499.656 20 499.391 21.9531H510.242V21.5312C510.117 19.625 509.609 18.1875 508.719 17.2188C507.828 16.2344 506.594 15.7422 505.016 15.7422ZM525.594 11.6406L525.758 14.5703C527.633 12.3047 530.094 11.1719 533.141 11.1719C538.422 11.1719 541.109 14.1953 541.203 20.2422V37H535.508V20.5703C535.508 18.9609 535.156 17.7734 534.453 17.0078C533.766 16.2266 532.633 15.8359 531.055 15.8359C528.758 15.8359 527.047 16.875 525.922 18.9531V37H520.227V11.6406H525.594ZM545.961 24.1328C545.961 20.2266 546.867 17.0938 548.68 14.7344C550.492 12.3594 552.922 11.1719 555.969 11.1719C558.656 11.1719 560.828 12.1094 562.484 13.9844V1H568.18V37H563.023L562.742 34.375C561.039 36.4375 558.766 37.4688 555.922 37.4688C552.953 37.4688 550.547 36.2734 548.703 33.8828C546.875 31.4922 545.961 28.2422 545.961 24.1328ZM551.656 24.625C551.656 27.2031 552.148 29.2188 553.133 30.6719C554.133 32.1094 555.547 32.8281 557.375 32.8281C559.703 32.8281 561.406 31.7891 562.484 29.7109V18.8828C561.438 16.8516 559.75 15.8359 557.422 15.8359C555.578 15.8359 554.156 16.5703 553.156 18.0391C552.156 19.4922 551.656 21.6875 551.656 24.625ZM585.289 37.4688C581.68 37.4688 578.75 36.3359 576.5 34.0703C574.266 31.7891 573.148 28.7578 573.148 24.9766V24.2734C573.148 21.7422 573.633 19.4844 574.602 17.5C575.586 15.5 576.961 13.9453 578.727 12.8359C580.492 11.7266 582.461 11.1719 584.633 11.1719C588.086 11.1719 590.75 12.2734 592.625 14.4766C594.516 16.6797 595.461 19.7969 595.461 23.8281V26.125H578.891C579.062 28.2188 579.758 29.875 580.977 31.0938C582.211 32.3125 583.758 32.9219 585.617 32.9219C588.227 32.9219 590.352 31.8672 591.992 29.7578L595.062 32.6875C594.047 34.2031 592.688 35.3828 590.984 36.2266C589.297 37.0547 587.398 37.4688 585.289 37.4688ZM584.609 15.7422C583.047 15.7422 581.781 16.2891 580.812 17.3828C579.859 18.4766 579.25 20 578.984 21.9531H589.836V21.5312C589.711 19.625 589.203 18.1875 588.312 17.2188C587.422 16.2344 586.188 15.7422 584.609 15.7422ZM613.18 16.8438C612.43 16.7188 611.656 16.6562 610.859 16.6562C608.25 16.6562 606.492 17.6562 605.586 19.6562V37H599.891V11.6406H605.328L605.469 14.4766C606.844 12.2734 608.75 11.1719 611.188 11.1719C612 11.1719 612.672 11.2813 613.203 11.5L613.18 16.8438Z" fill="#E60000"/>
<path d="M266.586 92.8438C265.836 92.7188 265.062 92.6562 264.266 92.6562C261.656 92.6562 259.898 93.6562 258.992 95.6562V113H253.297V87.6406H258.734L258.875 90.4766C260.25 88.2734 262.156 87.1719 264.594 87.1719C265.406 87.1719 266.078 87.2812 266.609 87.5L266.586 92.8438ZM280.883 113.469C277.273 113.469 274.344 112.336 272.094 110.07C269.859 107.789 268.742 104.758 268.742 100.977V100.273C268.742 97.7422 269.227 95.4844 270.195 93.5C271.18 91.5 272.555 89.9453 274.32 88.8359C276.086 87.7266 278.055 87.1719 280.227 87.1719C283.68 87.1719 286.344 88.2734 288.219 90.4766C290.109 92.6797 291.055 95.7969 291.055 99.8281V102.125H274.484C274.656 104.219 275.352 105.875 276.57 107.094C277.805 108.312 279.352 108.922 281.211 108.922C283.82 108.922 285.945 107.867 287.586 105.758L290.656 108.688C289.641 110.203 288.281 111.383 286.578 112.227C284.891 113.055 282.992 113.469 280.883 113.469ZM280.203 91.7422C278.641 91.7422 277.375 92.2891 276.406 93.3828C275.453 94.4766 274.844 96 274.578 97.9531H285.43V97.5312C285.305 95.625 284.797 94.1875 283.906 93.2188C283.016 92.2344 281.781 91.7422 280.203 91.7422ZM309.711 106.109C309.711 105.094 309.289 104.32 308.445 103.789C307.617 103.258 306.234 102.789 304.297 102.383C302.359 101.977 300.742 101.461 299.445 100.836C296.602 99.4609 295.18 97.4688 295.18 94.8594C295.18 92.6719 296.102 90.8438 297.945 89.375C299.789 87.9062 302.133 87.1719 304.977 87.1719C308.008 87.1719 310.453 87.9219 312.312 89.4219C314.188 90.9219 315.125 92.8672 315.125 95.2578H309.43C309.43 94.1641 309.023 93.2578 308.211 92.5391C307.398 91.8047 306.32 91.4375 304.977 91.4375C303.727 91.4375 302.703 91.7266 301.906 92.3047C301.125 92.8828 300.734 93.6562 300.734 94.625C300.734 95.5 301.102 96.1797 301.836 96.6641C302.57 97.1484 304.055 97.6406 306.289 98.1406C308.523 98.625 310.273 99.2109 311.539 99.8984C312.82 100.57 313.766 101.383 314.375 102.336C315 103.289 315.312 104.445 315.312 105.805C315.312 108.086 314.367 109.938 312.477 111.359C310.586 112.766 308.109 113.469 305.047 113.469C302.969 113.469 301.117 113.094 299.492 112.344C297.867 111.594 296.602 110.562 295.695 109.25C294.789 107.938 294.336 106.523 294.336 105.008H299.867C299.945 106.352 300.453 107.391 301.391 108.125C302.328 108.844 303.57 109.203 305.117 109.203C306.617 109.203 307.758 108.922 308.539 108.359C309.32 107.781 309.711 107.031 309.711 106.109ZM335.656 110.516C333.984 112.484 331.609 113.469 328.531 113.469C325.781 113.469 323.695 112.664 322.273 111.055C320.867 109.445 320.164 107.117 320.164 104.07V87.6406H325.859V104C325.859 107.219 327.195 108.828 329.867 108.828C332.633 108.828 334.5 107.836 335.469 105.852V87.6406H341.164V113H335.797L335.656 110.516ZM353.023 113H347.328V77H353.023V113ZM366.383 81.4766V87.6406H370.859V91.8594H366.383V106.016C366.383 106.984 366.57 107.688 366.945 108.125C367.336 108.547 368.023 108.758 369.008 108.758C369.664 108.758 370.328 108.68 371 108.523V112.93C369.703 113.289 368.453 113.469 367.25 113.469C362.875 113.469 360.688 111.055 360.688 106.227V91.8594H356.516V87.6406H360.688V81.4766H366.383ZM390.383 113C390.133 112.516 389.914 111.727 389.727 110.633C387.914 112.523 385.695 113.469 383.07 113.469C380.523 113.469 378.445 112.742 376.836 111.289C375.227 109.836 374.422 108.039 374.422 105.898C374.422 103.195 375.422 101.125 377.422 99.6875C379.438 98.2344 382.312 97.5078 386.047 97.5078H389.539V95.8438C389.539 94.5312 389.172 93.4844 388.438 92.7031C387.703 91.9062 386.586 91.5078 385.086 91.5078C383.789 91.5078 382.727 91.8359 381.898 92.4922C381.07 93.1328 380.656 93.9531 380.656 94.9531H374.961C374.961 93.5625 375.422 92.2656 376.344 91.0625C377.266 89.8438 378.516 88.8906 380.094 88.2031C381.688 87.5156 383.461 87.1719 385.414 87.1719C388.383 87.1719 390.75 87.9219 392.516 89.4219C394.281 90.9062 395.188 93 395.234 95.7031V107.141C395.234 109.422 395.555 111.242 396.195 112.602V113H390.383ZM384.125 108.898C385.25 108.898 386.305 108.625 387.289 108.078C388.289 107.531 389.039 106.797 389.539 105.875V101.094H386.469C384.359 101.094 382.773 101.461 381.711 102.195C380.648 102.93 380.117 103.969 380.117 105.312C380.117 106.406 380.477 107.281 381.195 107.938C381.93 108.578 382.906 108.898 384.125 108.898ZM400.133 100.133C400.133 96.2266 401.039 93.0938 402.852 90.7344C404.664 88.3594 407.094 87.1719 410.141 87.1719C412.828 87.1719 415 88.1094 416.656 89.9844V77H422.352V113H417.195L416.914 110.375C415.211 112.438 412.938 113.469 410.094 113.469C407.125 113.469 404.719 112.273 402.875 109.883C401.047 107.492 400.133 104.242 400.133 100.133ZM405.828 100.625C405.828 103.203 406.32 105.219 407.305 106.672C408.305 108.109 409.719 108.828 411.547 108.828C413.875 108.828 415.578 107.789 416.656 105.711V94.8828C415.609 92.8516 413.922 91.8359 411.594 91.8359C409.75 91.8359 408.328 92.5703 407.328 94.0391C406.328 95.4922 405.828 97.6875 405.828 100.625ZM427.227 100.086C427.227 97.6016 427.719 95.3672 428.703 93.3828C429.688 91.3828 431.07 89.8516 432.852 88.7891C434.633 87.7109 436.68 87.1719 438.992 87.1719C442.414 87.1719 445.188 88.2734 447.312 90.4766C449.453 92.6797 450.609 95.6016 450.781 99.2422L450.805 100.578C450.805 103.078 450.32 105.312 449.352 107.281C448.398 109.25 447.023 110.773 445.227 111.852C443.445 112.93 441.383 113.469 439.039 113.469C435.461 113.469 432.594 112.281 430.438 109.906C428.297 107.516 427.227 104.336 427.227 100.367V100.086ZM432.922 100.578C432.922 103.188 433.461 105.234 434.539 106.719C435.617 108.188 437.117 108.922 439.039 108.922C440.961 108.922 442.453 108.172 443.516 106.672C444.594 105.172 445.133 102.977 445.133 100.086C445.133 97.5234 444.578 95.4922 443.469 93.9922C442.375 92.4922 440.883 91.7422 438.992 91.7422C437.133 91.7422 435.656 92.4844 434.562 93.9688C433.469 95.4375 432.922 97.6406 432.922 100.578ZM469.836 106.109C469.836 105.094 469.414 104.32 468.57 103.789C467.742 103.258 466.359 102.789 464.422 102.383C462.484 101.977 460.867 101.461 459.57 100.836C456.727 99.4609 455.305 97.4688 455.305 94.8594C455.305 92.6719 456.227 90.8438 458.07 89.375C459.914 87.9062 462.258 87.1719 465.102 87.1719C468.133 87.1719 470.578 87.9219 472.438 89.4219C474.312 90.9219 475.25 92.8672 475.25 95.2578H469.555C469.555 94.1641 469.148 93.2578 468.336 92.5391C467.523 91.8047 466.445 91.4375 465.102 91.4375C463.852 91.4375 462.828 91.7266 462.031 92.3047C461.25 92.8828 460.859 93.6562 460.859 94.625C460.859 95.5 461.227 96.1797 461.961 96.6641C462.695 97.1484 464.18 97.6406 466.414 98.1406C468.648 98.625 470.398 99.2109 471.664 99.8984C472.945 100.57 473.891 101.383 474.5 102.336C475.125 103.289 475.438 104.445 475.438 105.805C475.438 108.086 474.492 109.938 472.602 111.359C470.711 112.766 468.234 113.469 465.172 113.469C463.094 113.469 461.242 113.094 459.617 112.344C457.992 111.594 456.727 110.562 455.82 109.25C454.914 107.938 454.461 106.523 454.461 105.008H459.992C460.07 106.352 460.578 107.391 461.516 108.125C462.453 108.844 463.695 109.203 465.242 109.203C466.742 109.203 467.883 108.922 468.664 108.359C469.445 107.781 469.836 107.031 469.836 106.109Z" fill="#E50000"/>
</svg>
