<svg width="597" height="86" viewBox="0 0 597 86" fill="none" xmlns="http://www.w3.org/2000/svg">
<path d="M21.0938 5.99219H13.1133V28H8.70117V5.99219H0.791016V2.40625H21.0938V5.99219ZM30.8496 28.3516C28.1426 28.3516 25.9453 27.502 24.2578 25.8027C22.582 24.0918 21.7441 21.8184 21.7441 18.9824V18.4551C21.7441 16.5566 22.1074 14.8633 22.834 13.375C23.5723 11.875 24.6035 10.709 25.9277 9.87695C27.252 9.04492 28.7285 8.62891 30.3574 8.62891C32.9473 8.62891 34.9453 9.45508 36.3516 11.1074C37.7695 12.7598 38.4785 15.0977 38.4785 18.1211V19.8438H26.0508C26.1797 21.4141 26.7012 22.6562 27.6152 23.5703C28.541 24.4844 29.7012 24.9414 31.0957 24.9414C33.0527 24.9414 34.6465 24.1504 35.877 22.5684L38.1797 24.7656C37.418 25.9023 36.3984 26.7871 35.1211 27.4199C33.8555 28.041 32.4316 28.3516 30.8496 28.3516ZM30.3398 12.0566C29.168 12.0566 28.2188 12.4668 27.4922 13.2871C26.7773 14.1074 26.3203 15.25 26.1211 16.7148H34.2598V16.3984C34.166 14.9688 33.7852 13.8906 33.1172 13.1641C32.4492 12.4258 31.5234 12.0566 30.3398 12.0566ZM45.8262 8.98047L45.9492 10.9668C47.2852 9.4082 49.1133 8.62891 51.4336 8.62891C53.9766 8.62891 55.7168 9.60156 56.6543 11.5469C58.0371 9.60156 59.9824 8.62891 62.4902 8.62891C64.5879 8.62891 66.1465 9.20898 67.166 10.3691C68.1973 11.5293 68.7246 13.2402 68.748 15.502V28H64.4766V15.625C64.4766 14.418 64.2129 13.5332 63.6855 12.9707C63.1582 12.4082 62.2852 12.127 61.0664 12.127C60.0938 12.127 59.2969 12.3906 58.6758 12.918C58.0664 13.4336 57.6387 14.1133 57.3926 14.957L57.4102 28H53.1387V15.4844C53.0801 13.2461 51.9375 12.127 49.7109 12.127C48 12.127 46.7871 12.8242 46.0723 14.2188V28H41.8008V8.98047H45.8262ZM81.2988 18.3496C81.2988 15.4199 81.9785 13.0703 83.3379 11.3008C84.6973 9.51953 86.5195 8.62891 88.8047 8.62891C90.8203 8.62891 92.4492 9.33203 93.6914 10.7383V1H97.9629V28H94.0957L93.8848 26.0312C92.6074 27.5781 90.9023 28.3516 88.7695 28.3516C86.543 28.3516 84.7383 27.4551 83.3555 25.6621C81.9844 23.8691 81.2988 21.4316 81.2988 18.3496ZM85.5703 18.7188C85.5703 20.6523 85.9395 22.1641 86.6777 23.2539C87.4277 24.332 88.4883 24.8711 89.8594 24.8711C91.6055 24.8711 92.8828 24.0918 93.6914 22.5332V14.4121C92.9062 12.8887 91.6406 12.127 89.8945 12.127C88.5117 12.127 87.4453 12.6777 86.6953 13.7793C85.9453 14.8691 85.5703 16.5156 85.5703 18.7188ZM113.941 26.1367C112.688 27.6133 110.906 28.3516 108.598 28.3516C106.535 28.3516 104.971 27.748 103.904 26.541C102.85 25.334 102.322 23.5879 102.322 21.3027V8.98047H106.594V21.25C106.594 23.6641 107.596 24.8711 109.6 24.8711C111.674 24.8711 113.074 24.127 113.801 22.6387V8.98047H118.072V28H114.047L113.941 26.1367ZM129.129 22.5859L133.154 8.98047H137.566L130.975 28H127.266L120.621 8.98047H125.051L129.129 22.5859ZM144.791 28H140.52V8.98047H144.791V28ZM140.256 4.04102C140.256 3.38477 140.461 2.83984 140.871 2.40625C141.293 1.97266 141.891 1.75586 142.664 1.75586C143.438 1.75586 144.035 1.97266 144.457 2.40625C144.879 2.83984 145.09 3.38477 145.09 4.04102C145.09 4.68555 144.879 5.22461 144.457 5.6582C144.035 6.08008 143.438 6.29102 142.664 6.29102C141.891 6.29102 141.293 6.08008 140.871 5.6582C140.461 5.22461 140.256 4.68555 140.256 4.04102ZM148.658 18.3496C148.658 15.4199 149.338 13.0703 150.697 11.3008C152.057 9.51953 153.879 8.62891 156.164 8.62891C158.18 8.62891 159.809 9.33203 161.051 10.7383V1H165.322V28H161.455L161.244 26.0312C159.967 27.5781 158.262 28.3516 156.129 28.3516C153.902 28.3516 152.098 27.4551 150.715 25.6621C149.344 23.8691 148.658 21.4316 148.658 18.3496ZM152.93 18.7188C152.93 20.6523 153.299 22.1641 154.037 23.2539C154.787 24.332 155.848 24.8711 157.219 24.8711C158.965 24.8711 160.242 24.0918 161.051 22.5332V14.4121C160.266 12.8887 159 12.127 157.254 12.127C155.871 12.127 154.805 12.6777 154.055 13.7793C153.305 14.8691 152.93 16.5156 152.93 18.7188ZM181.143 28C180.955 27.6367 180.791 27.0449 180.65 26.2246C179.291 27.6426 177.627 28.3516 175.658 28.3516C173.748 28.3516 172.189 27.8066 170.982 26.7168C169.775 25.627 169.172 24.2793 169.172 22.6738C169.172 20.6465 169.922 19.0938 171.422 18.0156C172.934 16.9258 175.09 16.3809 177.891 16.3809H180.51V15.1328C180.51 14.1484 180.234 13.3633 179.684 12.7773C179.133 12.1797 178.295 11.8809 177.17 11.8809C176.197 11.8809 175.4 12.127 174.779 12.6191C174.158 13.0996 173.848 13.7148 173.848 14.4648H169.576C169.576 13.4219 169.922 12.4492 170.613 11.5469C171.305 10.6328 172.242 9.91797 173.426 9.40234C174.621 8.88672 175.951 8.62891 177.416 8.62891C179.643 8.62891 181.418 9.19141 182.742 10.3164C184.066 11.4297 184.746 13 184.781 15.0273V23.6055C184.781 25.3164 185.021 26.6816 185.502 27.7012V28H181.143ZM176.449 24.9238C177.293 24.9238 178.084 24.7188 178.822 24.3086C179.572 23.8984 180.135 23.3477 180.51 22.6562V19.0703H178.207C176.625 19.0703 175.436 19.3457 174.639 19.8965C173.842 20.4473 173.443 21.2266 173.443 22.2344C173.443 23.0547 173.713 23.7109 174.252 24.2031C174.803 24.6836 175.535 24.9238 176.449 24.9238ZM199.916 22.832C199.916 22.0703 199.6 21.4902 198.967 21.0918C198.346 20.6934 197.309 20.3418 195.855 20.0371C194.402 19.7324 193.189 19.3457 192.217 18.877C190.084 17.8457 189.018 16.3516 189.018 14.3945C189.018 12.7539 189.709 11.3828 191.092 10.2812C192.475 9.17969 194.232 8.62891 196.365 8.62891C198.639 8.62891 200.473 9.19141 201.867 10.3164C203.273 11.4414 203.977 12.9004 203.977 14.6934H199.705C199.705 13.873 199.4 13.1934 198.791 12.6543C198.182 12.1035 197.373 11.8281 196.365 11.8281C195.428 11.8281 194.66 12.0449 194.062 12.4785C193.477 12.9121 193.184 13.4922 193.184 14.2188C193.184 14.875 193.459 15.3848 194.01 15.748C194.561 16.1113 195.674 16.4805 197.35 16.8555C199.025 17.2188 200.338 17.6582 201.287 18.1738C202.248 18.6777 202.957 19.2871 203.414 20.002C203.883 20.7168 204.117 21.584 204.117 22.6035C204.117 24.3145 203.408 25.7031 201.99 26.7695C200.572 27.8242 198.715 28.3516 196.418 28.3516C194.859 28.3516 193.471 28.0703 192.252 27.5078C191.033 26.9453 190.084 26.1719 189.404 25.1875C188.725 24.2031 188.385 23.1426 188.385 22.0059H192.533C192.592 23.0137 192.973 23.793 193.676 24.3438C194.379 24.8828 195.311 25.1523 196.471 25.1523C197.596 25.1523 198.451 24.9414 199.037 24.5195C199.623 24.0859 199.916 23.5234 199.916 22.832ZM208.459 33.7656L206.156 32.3945C206.836 31.3281 207.299 30.3965 207.545 29.5996C207.803 28.8145 207.938 28.0117 207.949 27.1914V23.8691H211.799L211.781 26.9453C211.77 28.1875 211.453 29.4297 210.832 30.6719C210.223 31.9258 209.432 32.957 208.459 33.7656ZM302.291 24.9414C303.357 24.9414 304.242 24.6309 304.945 24.0098C305.648 23.3887 306.023 22.6211 306.07 21.707H310.096C310.049 22.8906 309.68 23.998 308.988 25.0293C308.297 26.0488 307.359 26.8574 306.176 27.4551C304.992 28.0527 303.715 28.3516 302.344 28.3516C299.684 28.3516 297.574 27.4902 296.016 25.7676C294.457 24.0449 293.678 21.666 293.678 18.6309V18.1914C293.678 15.2969 294.451 12.9824 295.998 11.248C297.545 9.50195 299.654 8.62891 302.326 8.62891C304.588 8.62891 306.428 9.29102 307.846 10.6152C309.275 11.9277 310.025 13.6562 310.096 15.8008H306.07C306.023 14.7109 305.648 13.8145 304.945 13.1113C304.254 12.4082 303.369 12.0566 302.291 12.0566C300.908 12.0566 299.842 12.5605 299.092 13.5684C298.342 14.5645 297.961 16.082 297.949 18.1211V18.8066C297.949 20.8691 298.318 22.4102 299.057 23.4297C299.807 24.4375 300.885 24.9414 302.291 24.9414ZM312.521 18.3145C312.521 16.4512 312.891 14.7754 313.629 13.2871C314.367 11.7871 315.404 10.6387 316.74 9.8418C318.076 9.0332 319.611 8.62891 321.346 8.62891C323.912 8.62891 325.992 9.45508 327.586 11.1074C329.191 12.7598 330.059 14.9512 330.188 17.6816L330.205 18.6836C330.205 20.5586 329.842 22.2344 329.115 23.7109C328.4 25.1875 327.369 26.3301 326.021 27.1387C324.686 27.9473 323.139 28.3516 321.381 28.3516C318.697 28.3516 316.547 27.4609 314.93 25.6797C313.324 23.8867 312.521 21.502 312.521 18.5254V18.3145ZM316.793 18.6836C316.793 20.6406 317.197 22.1758 318.006 23.2891C318.814 24.3906 319.939 24.9414 321.381 24.9414C322.822 24.9414 323.941 24.3789 324.738 23.2539C325.547 22.1289 325.951 20.4824 325.951 18.3145C325.951 16.3926 325.535 14.8691 324.703 13.7441C323.883 12.6191 322.764 12.0566 321.346 12.0566C319.951 12.0566 318.844 12.6133 318.023 13.7266C317.203 14.8281 316.793 16.4805 316.793 18.6836ZM337.834 8.98047L337.957 10.9668C339.293 9.4082 341.121 8.62891 343.441 8.62891C345.984 8.62891 347.725 9.60156 348.662 11.5469C350.045 9.60156 351.99 8.62891 354.498 8.62891C356.596 8.62891 358.154 9.20898 359.174 10.3691C360.205 11.5293 360.732 13.2402 360.756 15.502V28H356.484V15.625C356.484 14.418 356.221 13.5332 355.693 12.9707C355.166 12.4082 354.293 12.127 353.074 12.127C352.102 12.127 351.305 12.3906 350.684 12.918C350.074 13.4336 349.646 14.1133 349.4 14.957L349.418 28H345.146V15.4844C345.088 13.2461 343.945 12.127 341.719 12.127C340.008 12.127 338.795 12.8242 338.08 14.2188V28H333.809V8.98047H337.834ZM385.629 26.1367C384.375 27.6133 382.594 28.3516 380.285 28.3516C378.223 28.3516 376.658 27.748 375.592 26.541C374.537 25.334 374.01 23.5879 374.01 21.3027V8.98047H378.281V21.25C378.281 23.6641 379.283 24.8711 381.287 24.8711C383.361 24.8711 384.762 24.127 385.488 22.6387V8.98047H389.76V28H385.734L385.629 26.1367ZM398.127 8.98047L398.25 10.9668C399.586 9.4082 401.414 8.62891 403.734 8.62891C406.277 8.62891 408.018 9.60156 408.955 11.5469C410.338 9.60156 412.283 8.62891 414.791 8.62891C416.889 8.62891 418.447 9.20898 419.467 10.3691C420.498 11.5293 421.025 13.2402 421.049 15.502V28H416.777V15.625C416.777 14.418 416.514 13.5332 415.986 12.9707C415.459 12.4082 414.586 12.127 413.367 12.127C412.395 12.127 411.598 12.3906 410.977 12.918C410.367 13.4336 409.939 14.1133 409.693 14.957L409.711 28H405.439V15.4844C405.381 13.2461 404.238 12.127 402.012 12.127C400.301 12.127 399.088 12.8242 398.373 14.2188V28H394.102V8.98047H398.127ZM433.6 18.3496C433.6 15.4199 434.279 13.0703 435.639 11.3008C436.998 9.51953 438.82 8.62891 441.105 8.62891C443.121 8.62891 444.75 9.33203 445.992 10.7383V1H450.264V28H446.396L446.186 26.0312C444.908 27.5781 443.203 28.3516 441.07 28.3516C438.844 28.3516 437.039 27.4551 435.656 25.6621C434.285 23.8691 433.6 21.4316 433.6 18.3496ZM437.871 18.7188C437.871 20.6523 438.24 22.1641 438.979 23.2539C439.729 24.332 440.789 24.8711 442.16 24.8711C443.906 24.8711 445.184 24.0918 445.992 22.5332V14.4121C445.207 12.8887 443.941 12.127 442.195 12.127C440.812 12.127 439.746 12.6777 438.996 13.7793C438.246 14.8691 437.871 16.5156 437.871 18.7188ZM463.096 28.3516C460.389 28.3516 458.191 27.502 456.504 25.8027C454.828 24.0918 453.99 21.8184 453.99 18.9824V18.4551C453.99 16.5566 454.354 14.8633 455.08 13.375C455.818 11.875 456.85 10.709 458.174 9.87695C459.498 9.04492 460.975 8.62891 462.604 8.62891C465.193 8.62891 467.191 9.45508 468.598 11.1074C470.016 12.7598 470.725 15.0977 470.725 18.1211V19.8438H458.297C458.426 21.4141 458.947 22.6562 459.861 23.5703C460.787 24.4844 461.947 24.9414 463.342 24.9414C465.299 24.9414 466.893 24.1504 468.123 22.5684L470.426 24.7656C469.664 25.9023 468.645 26.7871 467.367 27.4199C466.102 28.041 464.678 28.3516 463.096 28.3516ZM462.586 12.0566C461.414 12.0566 460.465 12.4668 459.738 13.2871C459.023 14.1074 458.566 15.25 458.367 16.7148H466.506V16.3984C466.412 14.9688 466.031 13.8906 465.363 13.1641C464.695 12.4258 463.77 12.0566 462.586 12.0566ZM486.984 8.98047L487.107 11.1777C488.514 9.47852 490.359 8.62891 492.645 8.62891C496.605 8.62891 498.621 10.8965 498.691 15.4316V28H494.42V15.6777C494.42 14.4707 494.156 13.5801 493.629 13.0059C493.113 12.4199 492.264 12.127 491.08 12.127C489.357 12.127 488.074 12.9062 487.23 14.4648V28H482.959V8.98047H486.984ZM502.26 18.3145C502.26 16.4512 502.629 14.7754 503.367 13.2871C504.105 11.7871 505.143 10.6387 506.479 9.8418C507.814 9.0332 509.35 8.62891 511.084 8.62891C513.65 8.62891 515.73 9.45508 517.324 11.1074C518.93 12.7598 519.797 14.9512 519.926 17.6816L519.943 18.6836C519.943 20.5586 519.58 22.2344 518.854 23.7109C518.139 25.1875 517.107 26.3301 515.76 27.1387C514.424 27.9473 512.877 28.3516 511.119 28.3516C508.436 28.3516 506.285 27.4609 504.668 25.6797C503.062 23.8867 502.26 21.502 502.26 18.5254V18.3145ZM506.531 18.6836C506.531 20.6406 506.936 22.1758 507.744 23.2891C508.553 24.3906 509.678 24.9414 511.119 24.9414C512.561 24.9414 513.68 24.3789 514.477 23.2539C515.285 22.1289 515.689 20.4824 515.689 18.3145C515.689 16.3926 515.273 14.8691 514.441 13.7441C513.621 12.6191 512.502 12.0566 511.084 12.0566C509.689 12.0566 508.582 12.6133 507.762 13.7266C506.941 14.8281 506.531 16.4805 506.531 18.6836ZM534.217 22.832C534.217 22.0703 533.9 21.4902 533.268 21.0918C532.646 20.6934 531.609 20.3418 530.156 20.0371C528.703 19.7324 527.49 19.3457 526.518 18.877C524.385 17.8457 523.318 16.3516 523.318 14.3945C523.318 12.7539 524.01 11.3828 525.393 10.2812C526.775 9.17969 528.533 8.62891 530.666 8.62891C532.939 8.62891 534.773 9.19141 536.168 10.3164C537.574 11.4414 538.277 12.9004 538.277 14.6934H534.006C534.006 13.873 533.701 13.1934 533.092 12.6543C532.482 12.1035 531.674 11.8281 530.666 11.8281C529.729 11.8281 528.961 12.0449 528.363 12.4785C527.777 12.9121 527.484 13.4922 527.484 14.2188C527.484 14.875 527.76 15.3848 528.311 15.748C528.861 16.1113 529.975 16.4805 531.65 16.8555C533.326 17.2188 534.639 17.6582 535.588 18.1738C536.549 18.6777 537.258 19.2871 537.715 20.002C538.184 20.7168 538.418 21.584 538.418 22.6035C538.418 24.3145 537.709 25.7031 536.291 26.7695C534.873 27.8242 533.016 28.3516 530.719 28.3516C529.16 28.3516 527.771 28.0703 526.553 27.5078C525.334 26.9453 524.385 26.1719 523.705 25.1875C523.025 24.2031 522.686 23.1426 522.686 22.0059H526.834C526.893 23.0137 527.273 23.793 527.977 24.3438C528.68 24.8828 529.611 25.1523 530.771 25.1523C531.896 25.1523 532.752 24.9414 533.338 24.5195C533.924 24.0859 534.217 23.5234 534.217 22.832ZM552.814 22.832C552.814 22.0703 552.498 21.4902 551.865 21.0918C551.244 20.6934 550.207 20.3418 548.754 20.0371C547.301 19.7324 546.088 19.3457 545.115 18.877C542.982 17.8457 541.916 16.3516 541.916 14.3945C541.916 12.7539 542.607 11.3828 543.99 10.2812C545.373 9.17969 547.131 8.62891 549.264 8.62891C551.537 8.62891 553.371 9.19141 554.766 10.3164C556.172 11.4414 556.875 12.9004 556.875 14.6934H552.604C552.604 13.873 552.299 13.1934 551.689 12.6543C551.08 12.1035 550.271 11.8281 549.264 11.8281C548.326 11.8281 547.559 12.0449 546.961 12.4785C546.375 12.9121 546.082 13.4922 546.082 14.2188C546.082 14.875 546.357 15.3848 546.908 15.748C547.459 16.1113 548.572 16.4805 550.248 16.8555C551.924 17.2188 553.236 17.6582 554.186 18.1738C555.146 18.6777 555.855 19.2871 556.312 20.002C556.781 20.7168 557.016 21.584 557.016 22.6035C557.016 24.3145 556.307 25.7031 554.889 26.7695C553.471 27.8242 551.613 28.3516 549.316 28.3516C547.758 28.3516 546.369 28.0703 545.15 27.5078C543.932 26.9453 542.982 26.1719 542.303 25.1875C541.623 24.2031 541.283 23.1426 541.283 22.0059H545.432C545.49 23.0137 545.871 23.793 546.574 24.3438C547.277 24.8828 548.209 25.1523 549.369 25.1523C550.494 25.1523 551.35 24.9414 551.936 24.5195C552.521 24.0859 552.814 23.5234 552.814 22.832ZM559.951 18.3145C559.951 16.4512 560.32 14.7754 561.059 13.2871C561.797 11.7871 562.834 10.6387 564.17 9.8418C565.506 9.0332 567.041 8.62891 568.775 8.62891C571.342 8.62891 573.422 9.45508 575.016 11.1074C576.621 12.7598 577.488 14.9512 577.617 17.6816L577.635 18.6836C577.635 20.5586 577.271 22.2344 576.545 23.7109C575.83 25.1875 574.799 26.3301 573.451 27.1387C572.115 27.9473 570.568 28.3516 568.811 28.3516C566.127 28.3516 563.977 27.4609 562.359 25.6797C560.754 23.8867 559.951 21.502 559.951 18.5254V18.3145ZM564.223 18.6836C564.223 20.6406 564.627 22.1758 565.436 23.2891C566.244 24.3906 567.369 24.9414 568.811 24.9414C570.252 24.9414 571.371 24.3789 572.168 23.2539C572.977 22.1289 573.381 20.4824 573.381 18.3145C573.381 16.3926 572.965 14.8691 572.133 13.7441C571.312 12.6191 570.193 12.0566 568.775 12.0566C567.381 12.0566 566.273 12.6133 565.453 13.7266C564.633 14.8281 564.223 16.4805 564.223 18.6836ZM591.908 22.832C591.908 22.0703 591.592 21.4902 590.959 21.0918C590.338 20.6934 589.301 20.3418 587.848 20.0371C586.395 19.7324 585.182 19.3457 584.209 18.877C582.076 17.8457 581.01 16.3516 581.01 14.3945C581.01 12.7539 581.701 11.3828 583.084 10.2812C584.467 9.17969 586.225 8.62891 588.357 8.62891C590.631 8.62891 592.465 9.19141 593.859 10.3164C595.266 11.4414 595.969 12.9004 595.969 14.6934H591.697C591.697 13.873 591.393 13.1934 590.783 12.6543C590.174 12.1035 589.365 11.8281 588.357 11.8281C587.42 11.8281 586.652 12.0449 586.055 12.4785C585.469 12.9121 585.176 13.4922 585.176 14.2188C585.176 14.875 585.451 15.3848 586.002 15.748C586.553 16.1113 587.666 16.4805 589.342 16.8555C591.018 17.2188 592.33 17.6582 593.279 18.1738C594.24 18.6777 594.949 19.2871 595.406 20.002C595.875 20.7168 596.109 21.584 596.109 22.6035C596.109 24.3145 595.4 25.7031 593.982 26.7695C592.564 27.8242 590.707 28.3516 588.41 28.3516C586.852 28.3516 585.463 28.0703 584.244 27.5078C583.025 26.9453 582.076 26.1719 581.396 25.1875C580.717 24.2031 580.377 23.1426 580.377 22.0059H584.525C584.584 23.0137 584.965 23.793 585.668 24.3438C586.371 24.8828 587.303 25.1523 588.463 25.1523C589.588 25.1523 590.443 24.9414 591.029 24.5195C591.615 24.0859 591.908 23.5234 591.908 22.832ZM10.002 81.9414C11.0684 81.9414 11.9531 81.6309 12.6562 81.0098C13.3594 80.3887 13.7344 79.6211 13.7812 78.707H17.8066C17.7598 79.8906 17.3906 80.998 16.6992 82.0293C16.0078 83.0488 15.0703 83.8574 13.8867 84.4551C12.7031 85.0527 11.4258 85.3516 10.0547 85.3516C7.39453 85.3516 5.28516 84.4902 3.72656 82.7676C2.16797 81.0449 1.38867 78.666 1.38867 75.6309V75.1914C1.38867 72.2969 2.16211 69.9824 3.70898 68.248C5.25586 66.502 7.36523 65.6289 10.0371 65.6289C12.2988 65.6289 14.1387 66.291 15.5566 67.6152C16.9863 68.9277 17.7363 70.6562 17.8066 72.8008H13.7812C13.7344 71.7109 13.3594 70.8145 12.6562 70.1113C11.9648 69.4082 11.0801 69.0566 10.002 69.0566C8.61914 69.0566 7.55273 69.5605 6.80273 70.5684C6.05273 71.5645 5.67188 73.082 5.66016 75.1211V75.8066C5.66016 77.8691 6.0293 79.4102 6.76758 80.4297C7.51758 81.4375 8.5957 81.9414 10.002 81.9414ZM20.2324 75.3145C20.2324 73.4512 20.6016 71.7754 21.3398 70.2871C22.0781 68.7871 23.1152 67.6387 24.4512 66.8418C25.7871 66.0332 27.3223 65.6289 29.0566 65.6289C31.623 65.6289 33.7031 66.4551 35.2969 68.1074C36.9023 69.7598 37.7695 71.9512 37.8984 74.6816L37.916 75.6836C37.916 77.5586 37.5527 79.2344 36.8262 80.7109C36.1113 82.1875 35.0801 83.3301 33.7324 84.1387C32.3965 84.9473 30.8496 85.3516 29.0918 85.3516C26.4082 85.3516 24.2578 84.4609 22.6406 82.6797C21.0352 80.8867 20.2324 78.502 20.2324 75.5254V75.3145ZM24.5039 75.6836C24.5039 77.6406 24.9082 79.1758 25.7168 80.2891C26.5254 81.3906 27.6504 81.9414 29.0918 81.9414C30.5332 81.9414 31.6523 81.3789 32.4492 80.2539C33.2578 79.1289 33.6621 77.4824 33.6621 75.3145C33.6621 73.3926 33.2461 71.8691 32.4141 70.7441C31.5938 69.6191 30.4746 69.0566 29.0566 69.0566C27.6621 69.0566 26.5547 69.6133 25.7344 70.7266C24.9141 71.8281 24.5039 73.4805 24.5039 75.6836ZM45.4922 65.9805L45.6152 68.1777C47.0215 66.4785 48.8672 65.6289 51.1523 65.6289C55.1133 65.6289 57.1289 67.8965 57.1992 72.4316V85H52.9277V72.6777C52.9277 71.4707 52.6641 70.5801 52.1367 70.0059C51.6211 69.4199 50.7715 69.127 49.5879 69.127C47.8652 69.127 46.582 69.9062 45.7383 71.4648V85H41.4668V65.9805H45.4922ZM72.2285 79.832C72.2285 79.0703 71.9121 78.4902 71.2793 78.0918C70.6582 77.6934 69.6211 77.3418 68.168 77.0371C66.7148 76.7324 65.502 76.3457 64.5293 75.877C62.3965 74.8457 61.3301 73.3516 61.3301 71.3945C61.3301 69.7539 62.0215 68.3828 63.4043 67.2812C64.7871 66.1797 66.5449 65.6289 68.6777 65.6289C70.9512 65.6289 72.7852 66.1914 74.1797 67.3164C75.5859 68.4414 76.2891 69.9004 76.2891 71.6934H72.0176C72.0176 70.873 71.7129 70.1934 71.1035 69.6543C70.4941 69.1035 69.6855 68.8281 68.6777 68.8281C67.7402 68.8281 66.9727 69.0449 66.375 69.4785C65.7891 69.9121 65.4961 70.4922 65.4961 71.2188C65.4961 71.875 65.7715 72.3848 66.3223 72.748C66.873 73.1113 67.9863 73.4805 69.6621 73.8555C71.3379 74.2188 72.6504 74.6582 73.5996 75.1738C74.5605 75.6777 75.2695 76.2871 75.7266 77.002C76.1953 77.7168 76.4297 78.584 76.4297 79.6035C76.4297 81.3145 75.7207 82.7031 74.3027 83.7695C72.8848 84.8242 71.0273 85.3516 68.7305 85.3516C67.1719 85.3516 65.7832 85.0703 64.5645 84.5078C63.3457 83.9453 62.3965 83.1719 61.7168 82.1875C61.0371 81.2031 60.6973 80.1426 60.6973 79.0059H64.8457C64.9043 80.0137 65.2852 80.793 65.9883 81.3438C66.6914 81.8828 67.623 82.1523 68.7832 82.1523C69.9082 82.1523 70.7637 81.9414 71.3496 81.5195C71.9355 81.0859 72.2285 80.5234 72.2285 79.832ZM91.6875 83.1367C90.4336 84.6133 88.6523 85.3516 86.3438 85.3516C84.2812 85.3516 82.7168 84.748 81.6504 83.541C80.5957 82.334 80.0684 80.5879 80.0684 78.3027V65.9805H84.3398V78.25C84.3398 80.6641 85.3418 81.8711 87.3457 81.8711C89.4199 81.8711 90.8203 81.127 91.5469 79.6387V65.9805H95.8184V85H91.793L91.6875 83.1367ZM104.713 85H100.441V58H104.713V85ZM114.732 61.3574V65.9805H118.09V69.1445H114.732V79.7617C114.732 80.4883 114.873 81.0156 115.154 81.3438C115.447 81.6602 115.963 81.8184 116.701 81.8184C117.193 81.8184 117.691 81.7598 118.195 81.6426V84.9473C117.223 85.2168 116.285 85.3516 115.383 85.3516C112.102 85.3516 110.461 83.541 110.461 79.9199V69.1445H107.332V65.9805H110.461V61.3574H114.732ZM120.041 75.3145C120.041 73.4512 120.41 71.7754 121.148 70.2871C121.887 68.7871 122.924 67.6387 124.26 66.8418C125.596 66.0332 127.131 65.6289 128.865 65.6289C131.432 65.6289 133.512 66.4551 135.105 68.1074C136.711 69.7598 137.578 71.9512 137.707 74.6816L137.725 75.6836C137.725 77.5586 137.361 79.2344 136.635 80.7109C135.92 82.1875 134.889 83.3301 133.541 84.1387C132.205 84.9473 130.658 85.3516 128.9 85.3516C126.217 85.3516 124.066 84.4609 122.449 82.6797C120.844 80.8867 120.041 78.502 120.041 75.5254V75.3145ZM124.312 75.6836C124.312 77.6406 124.717 79.1758 125.525 80.2891C126.334 81.3906 127.459 81.9414 128.9 81.9414C130.342 81.9414 131.461 81.3789 132.258 80.2539C133.066 79.1289 133.471 77.4824 133.471 75.3145C133.471 73.3926 133.055 71.8691 132.223 70.7441C131.402 69.6191 130.283 69.0566 128.865 69.0566C127.471 69.0566 126.363 69.6133 125.543 70.7266C124.723 71.8281 124.312 73.4805 124.312 75.6836ZM151.295 69.8828C150.732 69.7891 150.152 69.7422 149.555 69.7422C147.598 69.7422 146.279 70.4922 145.6 71.9922V85H141.328V65.9805H145.406L145.512 68.1074C146.543 66.4551 147.973 65.6289 149.801 65.6289C150.41 65.6289 150.914 65.7109 151.312 65.875L151.295 69.8828ZM162.018 85.3516C159.311 85.3516 157.113 84.502 155.426 82.8027C153.75 81.0918 152.912 78.8184 152.912 75.9824V75.4551C152.912 73.5566 153.275 71.8633 154.002 70.375C154.74 68.875 155.771 67.709 157.096 66.877C158.42 66.0449 159.896 65.6289 161.525 65.6289C164.115 65.6289 166.113 66.4551 167.52 68.1074C168.938 69.7598 169.646 72.0977 169.646 75.1211V76.8438H157.219C157.348 78.4141 157.869 79.6562 158.783 80.5703C159.709 81.4844 160.869 81.9414 162.264 81.9414C164.221 81.9414 165.814 81.1504 167.045 79.5684L169.348 81.7656C168.586 82.9023 167.566 83.7871 166.289 84.4199C165.023 85.041 163.6 85.3516 162.018 85.3516ZM161.508 69.0566C160.336 69.0566 159.387 69.4668 158.66 70.2871C157.945 71.1074 157.488 72.25 157.289 73.7148H165.428V73.3984C165.334 71.9688 164.953 70.8906 164.285 70.1641C163.617 69.4258 162.691 69.0566 161.508 69.0566ZM183.639 79.832C183.639 79.0703 183.322 78.4902 182.689 78.0918C182.068 77.6934 181.031 77.3418 179.578 77.0371C178.125 76.7324 176.912 76.3457 175.939 75.877C173.807 74.8457 172.74 73.3516 172.74 71.3945C172.74 69.7539 173.432 68.3828 174.814 67.2812C176.197 66.1797 177.955 65.6289 180.088 65.6289C182.361 65.6289 184.195 66.1914 185.59 67.3164C186.996 68.4414 187.699 69.9004 187.699 71.6934H183.428C183.428 70.873 183.123 70.1934 182.514 69.6543C181.904 69.1035 181.096 68.8281 180.088 68.8281C179.15 68.8281 178.383 69.0449 177.785 69.4785C177.199 69.9121 176.906 70.4922 176.906 71.2188C176.906 71.875 177.182 72.3848 177.732 72.748C178.283 73.1113 179.396 73.4805 181.072 73.8555C182.748 74.2188 184.061 74.6582 185.01 75.1738C185.971 75.6777 186.68 76.2871 187.137 77.002C187.605 77.7168 187.84 78.584 187.84 79.6035C187.84 81.3145 187.131 82.7031 185.713 83.7695C184.295 84.8242 182.438 85.3516 180.141 85.3516C178.582 85.3516 177.193 85.0703 175.975 84.5078C174.756 83.9453 173.807 83.1719 173.127 82.1875C172.447 81.2031 172.107 80.1426 172.107 79.0059H176.256C176.314 80.0137 176.695 80.793 177.398 81.3438C178.102 81.8828 179.033 82.1523 180.193 82.1523C181.318 82.1523 182.174 81.9414 182.76 81.5195C183.346 81.0859 183.639 80.5234 183.639 79.832ZM199.74 75.3145C199.74 73.4512 200.109 71.7754 200.848 70.2871C201.586 68.7871 202.623 67.6387 203.959 66.8418C205.295 66.0332 206.83 65.6289 208.564 65.6289C211.131 65.6289 213.211 66.4551 214.805 68.1074C216.41 69.7598 217.277 71.9512 217.406 74.6816L217.424 75.6836C217.424 77.5586 217.061 79.2344 216.334 80.7109C215.619 82.1875 214.588 83.3301 213.24 84.1387C211.904 84.9473 210.357 85.3516 208.6 85.3516C205.916 85.3516 203.766 84.4609 202.148 82.6797C200.543 80.8867 199.74 78.502 199.74 75.5254V75.3145ZM204.012 75.6836C204.012 77.6406 204.416 79.1758 205.225 80.2891C206.033 81.3906 207.158 81.9414 208.6 81.9414C210.041 81.9414 211.16 81.3789 211.957 80.2539C212.766 79.1289 213.17 77.4824 213.17 75.3145C213.17 73.3926 212.754 71.8691 211.922 70.7441C211.102 69.6191 209.982 69.0566 208.564 69.0566C207.17 69.0566 206.062 69.6133 205.242 70.7266C204.422 71.8281 204.012 73.4805 204.012 75.6836ZM225 65.9805L225.123 68.1777C226.529 66.4785 228.375 65.6289 230.66 65.6289C234.621 65.6289 236.637 67.8965 236.707 72.4316V85H232.436V72.6777C232.436 71.4707 232.172 70.5801 231.645 70.0059C231.129 69.4199 230.279 69.127 229.096 69.127C227.373 69.127 226.09 69.9062 225.246 71.4648V85H220.975V65.9805H225ZM245.619 85H241.348V58H245.619V85ZM254.83 85H250.559V65.9805H254.83V85ZM250.295 61.041C250.295 60.3848 250.5 59.8398 250.91 59.4062C251.332 58.9727 251.93 58.7559 252.703 58.7559C253.477 58.7559 254.074 58.9727 254.496 59.4062C254.918 59.8398 255.129 60.3848 255.129 61.041C255.129 61.6855 254.918 62.2246 254.496 62.6582C254.074 63.0801 253.477 63.291 252.703 63.291C251.93 63.291 251.332 63.0801 250.91 62.6582C250.5 62.2246 250.295 61.6855 250.295 61.041ZM263.461 65.9805L263.584 68.1777C264.99 66.4785 266.836 65.6289 269.121 65.6289C273.082 65.6289 275.098 67.8965 275.168 72.4316V85H270.896V72.6777C270.896 71.4707 270.633 70.5801 270.105 70.0059C269.59 69.4199 268.74 69.127 267.557 69.127C265.834 69.127 264.551 69.9062 263.707 71.4648V85H259.436V65.9805H263.461ZM287.912 85.3516C285.205 85.3516 283.008 84.502 281.32 82.8027C279.645 81.0918 278.807 78.8184 278.807 75.9824V75.4551C278.807 73.5566 279.17 71.8633 279.896 70.375C280.635 68.875 281.666 67.709 282.99 66.877C284.314 66.0449 285.791 65.6289 287.42 65.6289C290.01 65.6289 292.008 66.4551 293.414 68.1074C294.832 69.7598 295.541 72.0977 295.541 75.1211V76.8438H283.113C283.242 78.4141 283.764 79.6562 284.678 80.5703C285.604 81.4844 286.764 81.9414 288.158 81.9414C290.115 81.9414 291.709 81.1504 292.939 79.5684L295.242 81.7656C294.48 82.9023 293.461 83.7871 292.184 84.4199C290.918 85.041 289.494 85.3516 287.912 85.3516ZM287.402 69.0566C286.23 69.0566 285.281 69.4668 284.555 70.2871C283.84 71.1074 283.383 72.25 283.184 73.7148H291.322V73.3984C291.229 71.9688 290.848 70.8906 290.18 70.1641C289.512 69.4258 288.586 69.0566 287.402 69.0566ZM431.754 77.459H428.08L427.676 59.4062H432.176L431.754 77.459ZM427.553 82.9785C427.553 82.3105 427.77 81.7598 428.203 81.3262C428.637 80.8809 429.229 80.6582 429.979 80.6582C430.729 80.6582 431.32 80.8809 431.754 81.3262C432.188 81.7598 432.404 82.3105 432.404 82.9785C432.404 83.623 432.193 84.1621 431.771 84.5957C431.35 85.0293 430.752 85.2461 429.979 85.2461C429.205 85.2461 428.607 85.0293 428.186 84.5957C427.764 84.1621 427.553 83.623 427.553 82.9785Z" fill="black"/>
<path d="M226.23 28V12.1445H223.33V8.98047H226.23V7.24023C226.23 5.13086 226.816 3.50195 227.988 2.35352C229.16 1.20508 230.801 0.630859 232.91 0.630859C233.66 0.630859 234.457 0.736328 235.301 0.947266L235.195 4.28711C234.727 4.19336 234.182 4.14648 233.561 4.14648C231.521 4.14648 230.502 5.19531 230.502 7.29297V8.98047H234.369V12.1445H230.502V28H226.23ZM248.854 28C248.666 27.6367 248.502 27.0449 248.361 26.2246C247.002 27.6426 245.338 28.3516 243.369 28.3516C241.459 28.3516 239.9 27.8066 238.693 26.7168C237.486 25.627 236.883 24.2793 236.883 22.6738C236.883 20.6465 237.633 19.0938 239.133 18.0156C240.645 16.9258 242.801 16.3809 245.602 16.3809H248.221V15.1328C248.221 14.1484 247.945 13.3633 247.395 12.7773C246.844 12.1797 246.006 11.8809 244.881 11.8809C243.908 11.8809 243.111 12.127 242.49 12.6191C241.869 13.0996 241.559 13.7148 241.559 14.4648H237.287C237.287 13.4219 237.633 12.4492 238.324 11.5469C239.016 10.6328 239.953 9.91797 241.137 9.40234C242.332 8.88672 243.662 8.62891 245.127 8.62891C247.354 8.62891 249.129 9.19141 250.453 10.3164C251.777 11.4297 252.457 13 252.492 15.0273V23.6055C252.492 25.3164 252.732 26.6816 253.213 27.7012V28H248.854ZM244.16 24.9238C245.004 24.9238 245.795 24.7188 246.533 24.3086C247.283 23.8984 247.846 23.3477 248.221 22.6562V19.0703H245.918C244.336 19.0703 243.146 19.3457 242.35 19.8965C241.553 20.4473 241.154 21.2266 241.154 22.2344C241.154 23.0547 241.424 23.7109 241.963 24.2031C242.514 24.6836 243.246 24.9238 244.16 24.9238ZM261.51 28H257.238V1H261.51V28ZM274.553 28.3516C271.846 28.3516 269.648 27.502 267.961 25.8027C266.285 24.0918 265.447 21.8184 265.447 18.9824V18.4551C265.447 16.5566 265.811 14.8633 266.537 13.375C267.275 11.875 268.307 10.709 269.631 9.87695C270.955 9.04492 272.432 8.62891 274.061 8.62891C276.65 8.62891 278.648 9.45508 280.055 11.1074C281.473 12.7598 282.182 15.0977 282.182 18.1211V19.8438H269.754C269.883 21.4141 270.404 22.6562 271.318 23.5703C272.244 24.4844 273.404 24.9414 274.799 24.9414C276.756 24.9414 278.35 24.1504 279.58 22.5684L281.883 24.7656C281.121 25.9023 280.102 26.7871 278.824 27.4199C277.559 28.041 276.135 28.3516 274.553 28.3516ZM274.043 12.0566C272.871 12.0566 271.922 12.4668 271.195 13.2871C270.48 14.1074 270.023 15.25 269.824 16.7148H277.963V16.3984C277.869 14.9688 277.488 13.8906 276.82 13.1641C276.152 12.4258 275.227 12.0566 274.043 12.0566ZM322.576 79.041H312.662L310.588 85H305.965L315.633 59.4062H319.623L329.309 85H324.668L322.576 79.041ZM313.91 75.4551H321.328L317.619 64.8379L313.91 75.4551ZM351.457 81.6777C350.531 82.8848 349.248 83.7988 347.607 84.4199C345.967 85.041 344.104 85.3516 342.018 85.3516C339.873 85.3516 337.975 84.8652 336.322 83.8926C334.67 82.9199 333.393 81.5312 332.49 79.7266C331.6 77.9102 331.137 75.7949 331.102 73.3809V71.377C331.102 67.5098 332.027 64.4922 333.879 62.3242C335.73 60.1445 338.314 59.0547 341.631 59.0547C344.479 59.0547 346.74 59.7578 348.416 61.1641C350.092 62.5703 351.1 64.5977 351.439 67.2461H347.08C346.588 64.1641 344.801 62.623 341.719 62.623C339.727 62.623 338.209 63.3438 337.166 64.7852C336.135 66.2148 335.602 68.3184 335.566 71.0957V73.0645C335.566 75.8301 336.146 77.9805 337.307 79.5156C338.479 81.0391 340.102 81.8008 342.176 81.8008C344.449 81.8008 346.066 81.2852 347.027 80.2539V75.2441H341.754V71.8691H351.457V81.6777ZM376.77 72.8711C376.77 75.3789 376.336 77.582 375.469 79.4805C374.602 81.3672 373.359 82.8203 371.742 83.8398C370.137 84.8477 368.285 85.3516 366.188 85.3516C364.113 85.3516 362.262 84.8477 360.633 83.8398C359.016 82.8203 357.762 81.373 356.871 79.498C355.992 77.623 355.547 75.4609 355.535 73.0117V71.5703C355.535 69.0742 355.975 66.8711 356.854 64.9609C357.744 63.0508 358.992 61.5918 360.598 60.584C362.215 59.5645 364.066 59.0547 366.152 59.0547C368.238 59.0547 370.084 59.5586 371.689 60.5664C373.307 61.5625 374.555 63.0039 375.434 64.8906C376.312 66.7656 376.758 68.9512 376.77 71.4473V72.8711ZM372.322 71.5352C372.322 68.6992 371.783 66.5254 370.705 65.0137C369.639 63.502 368.121 62.7461 366.152 62.7461C364.23 62.7461 362.725 63.502 361.635 65.0137C360.557 66.5137 360.006 68.6406 359.982 71.3945V72.8711C359.982 75.6836 360.527 77.8574 361.617 79.3926C362.719 80.9277 364.242 81.6953 366.188 81.6953C368.156 81.6953 369.668 80.9453 370.723 79.4453C371.789 77.9453 372.322 75.7539 372.322 72.8711V71.5352ZM390.604 75.1387H385.646V85H381.199V59.4062H390.199C393.152 59.4062 395.432 60.0684 397.037 61.3926C398.643 62.7168 399.445 64.6328 399.445 67.1406C399.445 68.8516 399.029 70.2871 398.197 71.4473C397.377 72.5957 396.229 73.4805 394.752 74.1016L400.5 84.7715V85H395.736L390.604 75.1387ZM385.646 71.5703H390.217C391.717 71.5703 392.889 71.1953 393.732 70.4453C394.576 69.6836 394.998 68.6465 394.998 67.334C394.998 65.9629 394.605 64.9023 393.82 64.1523C393.047 63.4023 391.887 63.0156 390.34 62.9922H385.646V71.5703ZM417.99 79.041H408.076L406.002 85H401.379L411.047 59.4062H415.037L424.723 85H420.082L417.99 79.041ZM409.324 75.4551H416.742L413.033 64.8379L409.324 75.4551Z" fill="#BE0E02"/>
</svg>
