<svg width="94" height="27" viewBox="0 0 94 27" fill="none" xmlns="http://www.w3.org/2000/svg">
<path d="M22.776 0.799998V26H18.096V15.2H5.064V26H0.384V0.799998H5.064V11.204H18.096V0.799998H22.776ZM45.8725 20.168H33.2725L30.7885 26H25.9645L37.3045 0.799998H41.9125L53.2885 26H48.3925L45.8725 20.168ZM44.3245 16.496L39.5725 5.48L34.8565 16.496H44.3245ZM56.4934 0.799998H61.1734V26H56.4934V0.799998ZM79.7615 26.36C77.1935 26.36 74.8775 25.808 72.8135 24.704C70.7495 23.576 69.1295 22.028 67.9535 20.06C66.7775 18.068 66.1895 15.848 66.1895 13.4C66.1895 10.952 66.7775 8.744 67.9535 6.776C69.1295 4.784 70.7495 3.236 72.8135 2.132C74.8775 1.004 77.1935 0.439999 79.7615 0.439999C82.3295 0.439999 84.6455 1.004 86.7095 2.132C88.7735 3.236 90.3935 4.772 91.5695 6.74C92.7455 8.708 93.3335 10.928 93.3335 13.4C93.3335 15.872 92.7455 18.092 91.5695 20.06C90.3935 22.028 88.7735 23.576 86.7095 24.704C84.6455 25.808 82.3295 26.36 79.7615 26.36ZM79.7615 22.256C81.4415 22.256 82.9535 21.884 84.2975 21.14C85.6415 20.372 86.6975 19.316 87.4655 17.972C88.2335 16.604 88.6175 15.08 88.6175 13.4C88.6175 11.72 88.2335 10.208 87.4655 8.864C86.6975 7.496 85.6415 6.44 84.2975 5.696C82.9535 4.928 81.4415 4.544 79.7615 4.544C78.0815 4.544 76.5695 4.928 75.2255 5.696C73.8815 6.44 72.8255 7.496 72.0575 8.864C71.2895 10.208 70.9055 11.72 70.9055 13.4C70.9055 15.08 71.2895 16.604 72.0575 17.972C72.8255 19.316 73.8815 20.372 75.2255 21.14C76.5695 21.884 78.0815 22.256 79.7615 22.256Z" fill="#BE0E02"/>
</svg>
