<svg width="778" height="193" viewBox="0 0 778 193" fill="none" xmlns="http://www.w3.org/2000/svg">
<path d="M34.8 4.4V38H28.416L11.664 17.6V38H3.984V4.4H10.416L27.12 24.8V4.4H34.8ZM68.2376 12.176V38H61.1336V34.928C60.1416 36.048 58.9576 36.912 57.5816 37.52C56.2056 38.096 54.7176 38.384 53.1176 38.384C49.7256 38.384 47.0376 37.408 45.0536 35.456C43.0696 33.504 42.0776 30.608 42.0776 26.768V12.176H49.5656V25.664C49.5656 29.824 51.3096 31.904 54.7976 31.904C56.5896 31.904 58.0296 31.328 59.1176 30.176C60.2056 28.992 60.7496 27.248 60.7496 24.944V12.176H68.2376ZM90.8708 11.792C94.0708 11.792 96.6468 12.752 98.5988 14.672C100.583 16.592 101.575 19.44 101.575 23.216V38H94.0868V24.368C94.0868 22.32 93.6388 20.8 92.7428 19.808C91.8468 18.784 90.5508 18.272 88.8548 18.272C86.9668 18.272 85.4628 18.864 84.3428 20.048C83.2228 21.2 82.6628 22.928 82.6628 25.232V38H75.1748V12.176H82.3268V15.2C83.3188 14.112 84.5508 13.28 86.0228 12.704C87.4948 12.096 89.1108 11.792 90.8708 11.792ZM121.124 38.384C118.372 38.384 115.892 37.824 113.684 36.704C111.508 35.552 109.796 33.968 108.548 31.952C107.332 29.936 106.724 27.648 106.724 25.088C106.724 22.528 107.332 20.24 108.548 18.224C109.796 16.208 111.508 14.64 113.684 13.52C115.892 12.368 118.372 11.792 121.124 11.792C123.844 11.792 126.212 12.368 128.228 13.52C130.276 14.64 131.764 16.256 132.692 18.368L126.884 21.488C125.54 19.12 123.604 17.936 121.076 17.936C119.124 17.936 117.508 18.576 116.228 19.856C114.948 21.136 114.308 22.88 114.308 25.088C114.308 27.296 114.948 29.04 116.228 30.32C117.508 31.6 119.124 32.24 121.076 32.24C123.636 32.24 125.572 31.056 126.884 28.688L132.692 31.856C131.764 33.904 130.276 35.504 128.228 36.656C126.212 37.808 123.844 38.384 121.124 38.384ZM147.419 11.792C151.419 11.792 154.491 12.752 156.635 14.672C158.779 16.56 159.851 19.424 159.851 23.264V38H152.843V34.784C151.435 37.184 148.811 38.384 144.971 38.384C142.987 38.384 141.259 38.048 139.787 37.376C138.347 36.704 137.243 35.776 136.475 34.592C135.707 33.408 135.323 32.064 135.323 30.56C135.323 28.16 136.219 26.272 138.011 24.896C139.835 23.52 142.635 22.832 146.411 22.832H152.363C152.363 21.2 151.867 19.952 150.875 19.088C149.883 18.192 148.395 17.744 146.411 17.744C145.035 17.744 143.675 17.968 142.331 18.416C141.019 18.832 139.899 19.408 138.971 20.144L136.283 14.912C137.691 13.92 139.371 13.152 141.323 12.608C143.307 12.064 145.339 11.792 147.419 11.792ZM146.843 33.344C148.123 33.344 149.259 33.056 150.251 32.48C151.243 31.872 151.947 30.992 152.363 29.84V27.2H147.227C144.155 27.2 142.619 28.208 142.619 30.224C142.619 31.184 142.987 31.952 143.723 32.528C144.491 33.072 145.531 33.344 146.843 33.344ZM188.43 12.752H195.054V18.512H188.622V38H181.134V18.512H177.15V12.752H181.134V11.6C181.134 8.656 181.998 6.32 183.726 4.592C185.486 2.864 187.95 2 191.118 2C192.238 2 193.294 2.128 194.286 2.384C195.31 2.608 196.158 2.944 196.83 3.392L194.862 8.816C193.998 8.208 192.99 7.904 191.838 7.904C189.566 7.904 188.43 9.152 188.43 11.648V12.752ZM210.744 38.384C208.024 38.384 205.576 37.824 203.4 36.704C201.256 35.552 199.576 33.968 198.36 31.952C197.144 29.936 196.536 27.648 196.536 25.088C196.536 22.528 197.144 20.24 198.36 18.224C199.576 16.208 201.256 14.64 203.4 13.52C205.576 12.368 208.024 11.792 210.744 11.792C213.464 11.792 215.896 12.368 218.04 13.52C220.184 14.64 221.864 16.208 223.08 18.224C224.296 20.24 224.904 22.528 224.904 25.088C224.904 27.648 224.296 29.936 223.08 31.952C221.864 33.968 220.184 35.552 218.04 36.704C215.896 37.824 213.464 38.384 210.744 38.384ZM210.744 32.24C212.664 32.24 214.232 31.6 215.448 30.32C216.696 29.008 217.32 27.264 217.32 25.088C217.32 22.912 216.696 21.184 215.448 19.904C214.232 18.592 212.664 17.936 210.744 17.936C208.824 17.936 207.24 18.592 205.992 19.904C204.744 21.184 204.12 22.912 204.12 25.088C204.12 27.264 204.744 29.008 205.992 30.32C207.24 31.6 208.824 32.24 210.744 32.24ZM229.909 12.176H237.397V38H229.909V12.176ZM233.653 8.576C232.277 8.576 231.157 8.176 230.293 7.376C229.429 6.576 228.997 5.584 228.997 4.4C228.997 3.216 229.429 2.224 230.293 1.424C231.157 0.623998 232.277 0.223997 233.653 0.223997C235.029 0.223997 236.149 0.607998 237.013 1.376C237.877 2.144 238.309 3.104 238.309 4.256C238.309 5.504 237.877 6.544 237.013 7.376C236.149 8.176 235.029 8.576 233.653 8.576ZM274.596 36.752C273.86 37.296 272.948 37.712 271.86 38C270.804 38.256 269.684 38.384 268.5 38.384C265.428 38.384 263.044 37.6 261.348 36.032C259.684 34.464 258.852 32.16 258.852 29.12V18.512H254.868V12.752H258.852V6.464H266.34V12.752H272.772V18.512H266.34V29.024C266.34 30.112 266.612 30.96 267.156 31.568C267.732 32.144 268.532 32.432 269.556 32.432C270.74 32.432 271.748 32.112 272.58 31.472L274.596 36.752ZM289.216 11.792C293.216 11.792 296.288 12.752 298.432 14.672C300.576 16.56 301.648 19.424 301.648 23.264V38H294.64V34.784C293.232 37.184 290.608 38.384 286.768 38.384C284.784 38.384 283.056 38.048 281.584 37.376C280.144 36.704 279.04 35.776 278.272 34.592C277.504 33.408 277.12 32.064 277.12 30.56C277.12 28.16 278.016 26.272 279.808 24.896C281.632 23.52 284.432 22.832 288.208 22.832H294.16C294.16 21.2 293.664 19.952 292.672 19.088C291.68 18.192 290.192 17.744 288.208 17.744C286.832 17.744 285.472 17.968 284.128 18.416C282.816 18.832 281.696 19.408 280.768 20.144L278.08 14.912C279.488 13.92 281.168 13.152 283.12 12.608C285.104 12.064 287.136 11.792 289.216 11.792ZM288.64 33.344C289.92 33.344 291.056 33.056 292.048 32.48C293.04 31.872 293.744 30.992 294.16 29.84V27.2H289.024C285.952 27.2 284.416 28.208 284.416 30.224C284.416 31.184 284.784 31.952 285.52 32.528C286.288 33.072 287.328 33.344 288.64 33.344ZM293.584 9.008C292.72 9.008 291.952 8.848 291.28 8.528C290.64 8.176 289.92 7.712 289.12 7.136C288.608 6.752 288.176 6.464 287.824 6.272C287.504 6.08 287.184 5.984 286.864 5.984C286.192 5.984 285.648 6.224 285.232 6.704C284.816 7.152 284.592 7.808 284.56 8.672H280.768C280.832 6.528 281.36 4.832 282.352 3.584C283.376 2.304 284.72 1.664 286.384 1.664C287.216 1.664 287.952 1.84 288.592 2.192C289.264 2.512 290.016 2.976 290.848 3.584C291.36 3.968 291.776 4.256 292.096 4.448C292.448 4.64 292.784 4.736 293.104 4.736C293.744 4.736 294.272 4.512 294.688 4.064C295.136 3.584 295.376 2.944 295.408 2.144H299.2C299.136 4.224 298.592 5.888 297.568 7.136C296.576 8.384 295.248 9.008 293.584 9.008ZM320.994 38.384C318.274 38.384 315.826 37.824 313.65 36.704C311.506 35.552 309.826 33.968 308.61 31.952C307.394 29.936 306.786 27.648 306.786 25.088C306.786 22.528 307.394 20.24 308.61 18.224C309.826 16.208 311.506 14.64 313.65 13.52C315.826 12.368 318.274 11.792 320.994 11.792C323.714 11.792 326.146 12.368 328.29 13.52C330.434 14.64 332.114 16.208 333.33 18.224C334.546 20.24 335.154 22.528 335.154 25.088C335.154 27.648 334.546 29.936 333.33 31.952C332.114 33.968 330.434 35.552 328.29 36.704C326.146 37.824 323.714 38.384 320.994 38.384ZM320.994 32.24C322.914 32.24 324.482 31.6 325.698 30.32C326.946 29.008 327.57 27.264 327.57 25.088C327.57 22.912 326.946 21.184 325.698 19.904C324.482 18.592 322.914 17.936 320.994 17.936C319.074 17.936 317.49 18.592 316.242 19.904C314.994 21.184 314.37 22.912 314.37 25.088C314.37 27.264 314.994 29.008 316.242 30.32C317.49 31.6 319.074 32.24 320.994 32.24ZM479.733 15.584C480.629 14.336 481.829 13.392 483.333 12.752C484.869 12.112 486.629 11.792 488.613 11.792V18.704C487.781 18.64 487.221 18.608 486.933 18.608C484.789 18.608 483.109 19.216 481.893 20.432C480.677 21.616 480.069 23.408 480.069 25.808V38H472.581V12.176H479.733V15.584ZM518.127 25.184C518.127 25.28 518.079 25.952 517.983 27.2H498.447C498.799 28.8 499.631 30.064 500.943 30.992C502.255 31.92 503.887 32.384 505.839 32.384C507.183 32.384 508.367 32.192 509.391 31.808C510.447 31.392 511.423 30.752 512.319 29.888L516.303 34.208C513.871 36.992 510.319 38.384 505.647 38.384C502.735 38.384 500.159 37.824 497.919 36.704C495.679 35.552 493.951 33.968 492.735 31.952C491.519 29.936 490.911 27.648 490.911 25.088C490.911 22.56 491.503 20.288 492.687 18.272C493.903 16.224 495.551 14.64 497.631 13.52C499.743 12.368 502.095 11.792 504.687 11.792C507.215 11.792 509.503 12.336 511.551 13.424C513.599 14.512 515.199 16.08 516.351 18.128C517.535 20.144 518.127 22.496 518.127 25.184ZM504.735 17.456C503.039 17.456 501.615 17.936 500.463 18.896C499.311 19.856 498.607 21.168 498.351 22.832H511.071C510.815 21.2 510.111 19.904 508.959 18.944C507.807 17.952 506.399 17.456 504.735 17.456ZM532.825 11.792C536.825 11.792 539.897 12.752 542.041 14.672C544.185 16.56 545.257 19.424 545.257 23.264V38H538.249V34.784C536.841 37.184 534.217 38.384 530.377 38.384C528.393 38.384 526.665 38.048 525.193 37.376C523.753 36.704 522.649 35.776 521.881 34.592C521.113 33.408 520.729 32.064 520.729 30.56C520.729 28.16 521.625 26.272 523.417 24.896C525.241 23.52 528.041 22.832 531.817 22.832H537.769C537.769 21.2 537.273 19.952 536.281 19.088C535.289 18.192 533.801 17.744 531.817 17.744C530.441 17.744 529.081 17.968 527.737 18.416C526.425 18.832 525.305 19.408 524.377 20.144L521.689 14.912C523.097 13.92 524.777 13.152 526.729 12.608C528.713 12.064 530.745 11.792 532.825 11.792ZM532.249 33.344C533.529 33.344 534.665 33.056 535.657 32.48C536.649 31.872 537.353 30.992 537.769 29.84V27.2H532.633C529.561 27.2 528.025 28.208 528.025 30.224C528.025 31.184 528.393 31.952 529.129 32.528C529.897 33.072 530.937 33.344 532.249 33.344ZM552.034 2.384H559.522V38H552.034V2.384ZM566.472 12.176H573.96V38H566.472V12.176ZM570.216 8.576C568.84 8.576 567.72 8.176 566.856 7.376C565.992 6.576 565.56 5.584 565.56 4.4C565.56 3.216 565.992 2.224 566.856 1.424C567.72 0.623998 568.84 0.223997 570.216 0.223997C571.592 0.223997 572.712 0.607998 573.576 1.376C574.44 2.144 574.872 3.104 574.872 4.256C574.872 5.504 574.44 6.544 573.576 7.376C572.712 8.176 571.592 8.576 570.216 8.576ZM602.173 32.24V38H579.133V33.488L592.285 17.936H579.469V12.176H601.741V16.688L588.589 32.24H602.173ZM617.388 11.792C621.388 11.792 624.46 12.752 626.604 14.672C628.748 16.56 629.82 19.424 629.82 23.264V38H622.812V34.784C621.404 37.184 618.78 38.384 614.94 38.384C612.956 38.384 611.228 38.048 609.756 37.376C608.316 36.704 607.212 35.776 606.444 34.592C605.676 33.408 605.292 32.064 605.292 30.56C605.292 28.16 606.188 26.272 607.98 24.896C609.804 23.52 612.604 22.832 616.38 22.832H622.332C622.332 21.2 621.836 19.952 620.844 19.088C619.852 18.192 618.364 17.744 616.38 17.744C615.004 17.744 613.644 17.968 612.3 18.416C610.988 18.832 609.868 19.408 608.94 20.144L606.252 14.912C607.66 13.92 609.34 13.152 611.292 12.608C613.276 12.064 615.308 11.792 617.388 11.792ZM616.812 33.344C618.092 33.344 619.228 33.056 620.22 32.48C621.212 31.872 621.916 30.992 622.332 29.84V27.2H617.196C614.124 27.2 612.588 28.208 612.588 30.224C612.588 31.184 612.956 31.952 613.692 32.528C614.46 33.072 615.5 33.344 616.812 33.344ZM643.749 15.584C644.645 14.336 645.845 13.392 647.349 12.752C648.885 12.112 650.645 11.792 652.629 11.792V18.704C651.797 18.64 651.237 18.608 650.949 18.608C648.805 18.608 647.125 19.216 645.909 20.432C644.693 21.616 644.085 23.408 644.085 25.808V38H636.597V12.176H643.749V15.584ZM696.878 12.176V38H689.774V34.928C688.782 36.048 687.598 36.912 686.222 37.52C684.846 38.096 683.358 38.384 681.758 38.384C678.366 38.384 675.678 37.408 673.694 35.456C671.71 33.504 670.718 30.608 670.718 26.768V12.176H678.206V25.664C678.206 29.824 679.95 31.904 683.438 31.904C685.23 31.904 686.67 31.328 687.758 30.176C688.846 28.992 689.39 27.248 689.39 24.944V12.176H696.878ZM736.887 11.792C740.119 11.792 742.679 12.752 744.567 14.672C746.487 16.56 747.447 19.408 747.447 23.216V38H739.959V24.368C739.959 22.32 739.527 20.8 738.663 19.808C737.831 18.784 736.631 18.272 735.063 18.272C733.303 18.272 731.911 18.848 730.887 20C729.863 21.12 729.351 22.8 729.351 25.04V38H721.863V24.368C721.863 20.304 720.231 18.272 716.967 18.272C715.239 18.272 713.863 18.848 712.839 20C711.815 21.12 711.303 22.8 711.303 25.04V38H703.815V12.176H710.967V15.152C711.927 14.064 713.095 13.232 714.471 12.656C715.879 12.08 717.415 11.792 719.079 11.792C720.903 11.792 722.551 12.16 724.023 12.896C725.495 13.6 726.679 14.64 727.575 16.016C728.631 14.672 729.959 13.632 731.559 12.896C733.191 12.16 734.967 11.792 736.887 11.792ZM764.575 11.792C768.575 11.792 771.647 12.752 773.791 14.672C775.935 16.56 777.007 19.424 777.007 23.264V38H769.999V34.784C768.591 37.184 765.967 38.384 762.127 38.384C760.143 38.384 758.415 38.048 756.943 37.376C755.503 36.704 754.399 35.776 753.631 34.592C752.863 33.408 752.479 32.064 752.479 30.56C752.479 28.16 753.375 26.272 755.167 24.896C756.991 23.52 759.791 22.832 763.567 22.832H769.519C769.519 21.2 769.023 19.952 768.031 19.088C767.039 18.192 765.551 17.744 763.567 17.744C762.191 17.744 760.831 17.968 759.487 18.416C758.175 18.832 757.055 19.408 756.127 20.144L753.439 14.912C754.847 13.92 756.527 13.152 758.479 12.608C760.463 12.064 762.495 11.792 764.575 11.792ZM763.999 33.344C765.279 33.344 766.415 33.056 767.407 32.48C768.399 31.872 769.103 30.992 769.519 29.84V27.2H764.383C761.311 27.2 759.775 28.208 759.775 30.224C759.775 31.184 760.143 31.952 760.879 32.528C761.647 33.072 762.687 33.344 763.999 33.344ZM222.275 115.384C219.555 115.384 217.107 114.824 214.931 113.704C212.787 112.552 211.107 110.968 209.891 108.952C208.675 106.936 208.067 104.648 208.067 102.088C208.067 99.528 208.675 97.24 209.891 95.224C211.107 93.208 212.787 91.64 214.931 90.52C217.107 89.368 219.555 88.792 222.275 88.792C224.995 88.792 227.427 89.368 229.571 90.52C231.715 91.64 233.395 93.208 234.611 95.224C235.827 97.24 236.435 99.528 236.435 102.088C236.435 104.648 235.827 106.936 234.611 108.952C233.395 110.968 231.715 112.552 229.571 113.704C227.427 114.824 224.995 115.384 222.275 115.384ZM222.275 109.24C224.195 109.24 225.763 108.6 226.979 107.32C228.227 106.008 228.851 104.264 228.851 102.088C228.851 99.912 228.227 98.184 226.979 96.904C225.763 95.592 224.195 94.936 222.275 94.936C220.355 94.936 218.771 95.592 217.523 96.904C216.275 98.184 215.651 99.912 215.651 102.088C215.651 104.264 216.275 106.008 217.523 107.32C218.771 108.6 220.355 109.24 222.275 109.24ZM257.136 88.792C260.336 88.792 262.912 89.752 264.864 91.672C266.848 93.592 267.84 96.44 267.84 100.216V115H260.352V101.368C260.352 99.32 259.904 97.8 259.008 96.808C258.112 95.784 256.816 95.272 255.12 95.272C253.232 95.272 251.728 95.864 250.608 97.048C249.488 98.2 248.928 99.928 248.928 102.232V115H241.44V89.176H248.592V92.2C249.584 91.112 250.816 90.28 252.288 89.704C253.76 89.096 255.376 88.792 257.136 88.792ZM274.628 79.384H282.116V115H274.628V79.384ZM289.065 89.176H296.553V115H289.065V89.176ZM292.809 85.576C291.433 85.576 290.313 85.176 289.449 84.376C288.585 83.576 288.153 82.584 288.153 81.4C288.153 80.216 288.585 79.224 289.449 78.424C290.313 77.624 291.433 77.224 292.809 77.224C294.185 77.224 295.305 77.608 296.169 78.376C297.033 79.144 297.465 80.104 297.465 81.256C297.465 82.504 297.033 83.544 296.169 84.376C295.305 85.176 294.185 85.576 292.809 85.576ZM319.199 88.792C322.399 88.792 324.975 89.752 326.927 91.672C328.911 93.592 329.903 96.44 329.903 100.216V115H322.415V101.368C322.415 99.32 321.967 97.8 321.071 96.808C320.175 95.784 318.879 95.272 317.183 95.272C315.295 95.272 313.791 95.864 312.671 97.048C311.551 98.2 310.991 99.928 310.991 102.232V115H303.503V89.176H310.655V92.2C311.647 91.112 312.879 90.28 314.351 89.704C315.823 89.096 317.439 88.792 319.199 88.792ZM362.268 102.184C362.268 102.28 362.22 102.952 362.124 104.2H342.588C342.94 105.8 343.772 107.064 345.084 107.992C346.396 108.92 348.028 109.384 349.98 109.384C351.324 109.384 352.508 109.192 353.532 108.808C354.588 108.392 355.564 107.752 356.46 106.888L360.444 111.208C358.012 113.992 354.46 115.384 349.788 115.384C346.876 115.384 344.3 114.824 342.06 113.704C339.82 112.552 338.092 110.968 336.876 108.952C335.66 106.936 335.052 104.648 335.052 102.088C335.052 99.56 335.644 97.288 336.828 95.272C338.044 93.224 339.692 91.64 341.772 90.52C343.884 89.368 346.236 88.792 348.828 88.792C351.356 88.792 353.644 89.336 355.692 90.424C357.74 91.512 359.34 93.08 360.492 95.128C361.676 97.144 362.268 99.496 362.268 102.184ZM348.876 94.456C347.18 94.456 345.756 94.936 344.604 95.896C343.452 96.856 342.748 98.168 342.492 99.832H355.212C354.956 98.2 354.252 96.904 353.1 95.944C351.948 94.952 350.54 94.456 348.876 94.456ZM370.133 106.072C371.477 106.072 372.581 106.504 373.445 107.368C374.309 108.2 374.741 109.304 374.741 110.68C374.741 111.32 374.661 111.96 374.501 112.6C374.341 113.24 373.989 114.2 373.445 115.48L370.709 122.392H365.957L368.069 114.76C367.269 114.44 366.629 113.928 366.149 113.224C365.701 112.488 365.477 111.64 365.477 110.68C365.477 109.304 365.909 108.2 366.773 107.368C367.669 106.504 368.789 106.072 370.133 106.072ZM569.619 79.384V115H562.467V112.024C560.611 114.264 557.923 115.384 554.403 115.384C551.971 115.384 549.763 114.84 547.779 113.752C545.827 112.664 544.291 111.112 543.171 109.096C542.051 107.08 541.491 104.744 541.491 102.088C541.491 99.432 542.051 97.096 543.171 95.08C544.291 93.064 545.827 91.512 547.779 90.424C549.763 89.336 551.971 88.792 554.403 88.792C557.699 88.792 560.275 89.832 562.131 91.912V79.384H569.619ZM555.699 109.24C557.587 109.24 559.155 108.6 560.403 107.32C561.651 106.008 562.275 104.264 562.275 102.088C562.275 99.912 561.651 98.184 560.403 96.904C559.155 95.592 557.587 94.936 555.699 94.936C553.779 94.936 552.195 95.592 550.947 96.904C549.699 98.184 549.075 99.912 549.075 102.088C549.075 104.264 549.699 106.008 550.947 107.32C552.195 108.6 553.779 109.24 555.699 109.24ZM601.846 102.184C601.846 102.28 601.798 102.952 601.702 104.2H582.166C582.518 105.8 583.35 107.064 584.662 107.992C585.974 108.92 587.606 109.384 589.558 109.384C590.902 109.384 592.086 109.192 593.11 108.808C594.166 108.392 595.142 107.752 596.038 106.888L600.022 111.208C597.59 113.992 594.038 115.384 589.366 115.384C586.454 115.384 583.878 114.824 581.638 113.704C579.398 112.552 577.67 110.968 576.454 108.952C575.238 106.936 574.63 104.648 574.63 102.088C574.63 99.56 575.222 97.288 576.406 95.272C577.622 93.224 579.27 91.64 581.35 90.52C583.462 89.368 585.814 88.792 588.406 88.792C590.934 88.792 593.222 89.336 595.27 90.424C597.318 91.512 598.918 93.08 600.07 95.128C601.254 97.144 601.846 99.496 601.846 102.184ZM588.454 94.456C586.758 94.456 585.334 94.936 584.182 95.896C583.03 96.856 582.326 98.168 582.07 99.832H594.79C594.534 98.2 593.83 96.904 592.678 95.944C591.526 94.952 590.118 94.456 588.454 94.456ZM646.057 89.176L635.161 115H627.433L616.585 89.176H624.313L631.465 106.744L638.857 89.176H646.057ZM660.697 115.384C657.977 115.384 655.529 114.824 653.353 113.704C651.209 112.552 649.529 110.968 648.313 108.952C647.097 106.936 646.489 104.648 646.489 102.088C646.489 99.528 647.097 97.24 648.313 95.224C649.529 93.208 651.209 91.64 653.353 90.52C655.529 89.368 657.977 88.792 660.697 88.792C663.417 88.792 665.849 89.368 667.993 90.52C670.137 91.64 671.817 93.208 673.033 95.224C674.249 97.24 674.857 99.528 674.857 102.088C674.857 104.648 674.249 106.936 673.033 108.952C671.817 110.968 670.137 112.552 667.993 113.704C665.849 114.824 663.417 115.384 660.697 115.384ZM660.697 109.24C662.617 109.24 664.185 108.6 665.401 107.32C666.649 106.008 667.273 104.264 667.273 102.088C667.273 99.912 666.649 98.184 665.401 96.904C664.185 95.592 662.617 94.936 660.697 94.936C658.777 94.936 657.193 95.592 655.945 96.904C654.697 98.184 654.073 99.912 654.073 102.088C654.073 104.264 654.697 106.008 655.945 107.32C657.193 108.6 658.777 109.24 660.697 109.24ZM692.342 115.384C689.59 115.384 687.11 114.824 684.902 113.704C682.726 112.552 681.014 110.968 679.766 108.952C678.55 106.936 677.942 104.648 677.942 102.088C677.942 99.528 678.55 97.24 679.766 95.224C681.014 93.208 682.726 91.64 684.902 90.52C687.11 89.368 689.59 88.792 692.342 88.792C695.062 88.792 697.43 89.368 699.446 90.52C701.494 91.64 702.982 93.256 703.91 95.368L698.102 98.488C696.758 96.12 694.822 94.936 692.294 94.936C690.342 94.936 688.726 95.576 687.446 96.856C686.166 98.136 685.526 99.88 685.526 102.088C685.526 104.296 686.166 106.04 687.446 107.32C688.726 108.6 690.342 109.24 692.294 109.24C694.854 109.24 696.79 108.056 698.102 105.688L703.91 108.856C702.982 110.904 701.494 112.504 699.446 113.656C697.43 114.808 695.062 115.384 692.342 115.384ZM733.19 102.184C733.19 102.28 733.142 102.952 733.046 104.2H713.51C713.862 105.8 714.694 107.064 716.006 107.992C717.318 108.92 718.95 109.384 720.902 109.384C722.246 109.384 723.43 109.192 724.454 108.808C725.51 108.392 726.486 107.752 727.382 106.888L731.366 111.208C728.934 113.992 725.382 115.384 720.71 115.384C717.798 115.384 715.222 114.824 712.982 113.704C710.742 112.552 709.014 110.968 707.798 108.952C706.582 106.936 705.974 104.648 705.974 102.088C705.974 99.56 706.566 97.288 707.75 95.272C708.966 93.224 710.614 91.64 712.694 90.52C714.806 89.368 717.158 88.792 719.75 88.792C722.278 88.792 724.566 89.336 726.614 90.424C728.662 91.512 730.262 93.08 731.414 95.128C732.598 97.144 733.19 99.496 733.19 102.184ZM719.798 94.456C718.102 94.456 716.678 94.936 715.526 95.896C714.374 96.856 713.67 98.168 713.414 99.832H726.134C725.878 98.2 725.174 96.904 724.022 95.944C722.87 94.952 721.462 94.456 719.798 94.456ZM723.782 85.864L719.606 82.216L715.43 85.864H709.958L716.294 78.952H722.918L729.254 85.864H723.782ZM777.065 102.184C777.065 102.28 777.017 102.952 776.921 104.2H757.385C757.737 105.8 758.569 107.064 759.881 107.992C761.193 108.92 762.825 109.384 764.777 109.384C766.121 109.384 767.305 109.192 768.329 108.808C769.385 108.392 770.361 107.752 771.257 106.888L775.241 111.208C772.809 113.992 769.257 115.384 764.585 115.384C761.673 115.384 759.097 114.824 756.857 113.704C754.617 112.552 752.889 110.968 751.673 108.952C750.457 106.936 749.849 104.648 749.849 102.088C749.849 99.56 750.441 97.288 751.625 95.272C752.841 93.224 754.489 91.64 756.569 90.52C758.681 89.368 761.033 88.792 763.625 88.792C766.153 88.792 768.441 89.336 770.489 90.424C772.537 91.512 774.137 93.08 775.289 95.128C776.473 97.144 777.065 99.496 777.065 102.184ZM763.673 94.456C761.977 94.456 760.553 94.936 759.401 95.896C758.249 96.856 757.545 98.168 757.289 99.832H770.009C769.753 98.2 769.049 96.904 767.897 95.944C766.745 94.952 765.337 94.456 763.673 94.456ZM12.144 192.384C10 192.384 7.904 192.128 5.856 191.616C3.808 191.072 2.176 190.4 0.96 189.6L3.456 184.224C4.608 184.96 6 185.568 7.632 186.048C9.264 186.496 10.864 186.72 12.432 186.72C15.6 186.72 17.184 185.936 17.184 184.368C17.184 183.632 16.752 183.104 15.888 182.784C15.024 182.464 13.696 182.192 11.904 181.968C9.792 181.648 8.048 181.28 6.672 180.864C5.296 180.448 4.096 179.712 3.072 178.656C2.08 177.6 1.584 176.096 1.584 174.144C1.584 172.512 2.048 171.072 2.976 169.824C3.936 168.544 5.312 167.552 7.104 166.848C8.928 166.144 11.072 165.792 13.536 165.792C15.36 165.792 17.168 166 18.96 166.416C20.784 166.8 22.288 167.344 23.472 168.048L20.976 173.376C18.704 172.096 16.224 171.456 13.536 171.456C11.936 171.456 10.736 171.68 9.936 172.128C9.136 172.576 8.736 173.152 8.736 173.856C8.736 174.656 9.168 175.216 10.032 175.536C10.896 175.856 12.272 176.16 14.16 176.448C16.272 176.8 18 177.184 19.344 177.6C20.688 177.984 21.856 178.704 22.848 179.76C23.84 180.816 24.336 182.288 24.336 184.176C24.336 185.776 23.856 187.2 22.896 188.448C21.936 189.696 20.528 190.672 18.672 191.376C16.848 192.048 14.672 192.384 12.144 192.384ZM54.252 179.184C54.252 179.28 54.204 179.952 54.108 181.2H34.572C34.924 182.8 35.756 184.064 37.068 184.992C38.38 185.92 40.012 186.384 41.964 186.384C43.308 186.384 44.492 186.192 45.516 185.808C46.572 185.392 47.548 184.752 48.444 183.888L52.428 188.208C49.996 190.992 46.444 192.384 41.772 192.384C38.86 192.384 36.284 191.824 34.044 190.704C31.804 189.552 30.076 187.968 28.86 185.952C27.644 183.936 27.036 181.648 27.036 179.088C27.036 176.56 27.628 174.288 28.812 172.272C30.028 170.224 31.676 168.64 33.756 167.52C35.868 166.368 38.22 165.792 40.812 165.792C43.34 165.792 45.628 166.336 47.676 167.424C49.724 168.512 51.324 170.08 52.476 172.128C53.66 174.144 54.252 176.496 54.252 179.184ZM40.86 171.456C39.164 171.456 37.74 171.936 36.588 172.896C35.436 173.856 34.732 175.168 34.476 176.832H47.196C46.94 175.2 46.236 173.904 45.084 172.944C43.932 171.952 42.524 171.456 40.86 171.456ZM92.3093 165.792C95.5413 165.792 98.1013 166.752 99.9893 168.672C101.909 170.56 102.869 173.408 102.869 177.216V192H95.3813V178.368C95.3813 176.32 94.9493 174.8 94.0853 173.808C93.2533 172.784 92.0533 172.272 90.4853 172.272C88.7253 172.272 87.3333 172.848 86.3093 174C85.2853 175.12 84.7733 176.8 84.7733 179.04V192H77.2853V178.368C77.2853 174.304 75.6533 172.272 72.3893 172.272C70.6613 172.272 69.2853 172.848 68.2613 174C67.2373 175.12 66.7253 176.8 66.7253 179.04V192H59.2373V166.176H66.3893V169.152C67.3493 168.064 68.5173 167.232 69.8932 166.656C71.3013 166.08 72.8373 165.792 74.5013 165.792C76.3253 165.792 77.9733 166.16 79.4453 166.896C80.9173 167.6 82.1013 168.64 82.9973 170.016C84.0533 168.672 85.3813 167.632 86.9813 166.896C88.6133 166.16 90.3893 165.792 92.3093 165.792ZM131.863 192.384C129.719 192.384 127.623 192.128 125.575 191.616C123.527 191.072 121.895 190.4 120.679 189.6L123.175 184.224C124.327 184.96 125.719 185.568 127.351 186.048C128.983 186.496 130.583 186.72 132.151 186.72C135.319 186.72 136.903 185.936 136.903 184.368C136.903 183.632 136.471 183.104 135.607 182.784C134.743 182.464 133.415 182.192 131.623 181.968C129.511 181.648 127.767 181.28 126.391 180.864C125.015 180.448 123.815 179.712 122.791 178.656C121.799 177.6 121.303 176.096 121.303 174.144C121.303 172.512 121.767 171.072 122.695 169.824C123.655 168.544 125.031 167.552 126.823 166.848C128.647 166.144 130.791 165.792 133.255 165.792C135.079 165.792 136.887 166 138.679 166.416C140.503 166.8 142.007 167.344 143.191 168.048L140.695 173.376C138.423 172.096 135.943 171.456 133.255 171.456C131.655 171.456 130.455 171.68 129.655 172.128C128.855 172.576 128.455 173.152 128.455 173.856C128.455 174.656 128.887 175.216 129.751 175.536C130.615 175.856 131.991 176.16 133.879 176.448C135.991 176.8 137.719 177.184 139.063 177.6C140.407 177.984 141.575 178.704 142.567 179.76C143.559 180.816 144.055 182.288 144.055 184.176C144.055 185.776 143.575 187.2 142.615 188.448C141.655 189.696 140.247 190.672 138.391 191.376C136.567 192.048 134.391 192.384 131.863 192.384ZM159.091 165.792C163.091 165.792 166.163 166.752 168.307 168.672C170.451 170.56 171.523 173.424 171.523 177.264V192H164.515V188.784C163.107 191.184 160.483 192.384 156.643 192.384C154.659 192.384 152.931 192.048 151.459 191.376C150.019 190.704 148.915 189.776 148.147 188.592C147.379 187.408 146.995 186.064 146.995 184.56C146.995 182.16 147.891 180.272 149.683 178.896C151.507 177.52 154.307 176.832 158.083 176.832H164.035C164.035 175.2 163.539 173.952 162.547 173.088C161.555 172.192 160.067 171.744 158.083 171.744C156.707 171.744 155.347 171.968 154.003 172.416C152.691 172.832 151.571 173.408 150.643 174.144L147.955 168.912C149.363 167.92 151.043 167.152 152.995 166.608C154.979 166.064 157.011 165.792 159.091 165.792ZM158.515 187.344C159.795 187.344 160.931 187.056 161.923 186.48C162.915 185.872 163.619 184.992 164.035 183.84V181.2H158.899C155.827 181.2 154.291 182.208 154.291 184.224C154.291 185.184 154.659 185.952 155.395 186.528C156.163 187.072 157.203 187.344 158.515 187.344ZM178.3 166.176H185.788V192H178.3V166.176ZM182.044 162.576C180.668 162.576 179.548 162.176 178.684 161.376C177.82 160.576 177.388 159.584 177.388 158.4C177.388 157.216 177.82 156.224 178.684 155.424C179.548 154.624 180.668 154.224 182.044 154.224C183.42 154.224 184.54 154.608 185.404 155.376C186.268 156.144 186.7 157.104 186.7 158.256C186.7 159.504 186.268 160.544 185.404 161.376C184.54 162.176 183.42 162.576 182.044 162.576ZM199.889 169.584C200.785 168.336 201.985 167.392 203.489 166.752C205.025 166.112 206.785 165.792 208.769 165.792V172.704C207.937 172.64 207.377 172.608 207.089 172.608C204.945 172.608 203.265 173.216 202.049 174.432C200.833 175.616 200.225 177.408 200.225 179.808V192H192.737V166.176H199.889V169.584ZM253.307 156.384V192H246.155V189.024C244.299 191.264 241.611 192.384 238.091 192.384C235.659 192.384 233.451 191.84 231.467 190.752C229.515 189.664 227.979 188.112 226.859 186.096C225.739 184.08 225.179 181.744 225.179 179.088C225.179 176.432 225.739 174.096 226.859 172.08C227.979 170.064 229.515 168.512 231.467 167.424C233.451 166.336 235.659 165.792 238.091 165.792C241.387 165.792 243.963 166.832 245.819 168.912V156.384H253.307ZM239.387 186.24C241.275 186.24 242.843 185.6 244.091 184.32C245.339 183.008 245.963 181.264 245.963 179.088C245.963 176.912 245.339 175.184 244.091 173.904C242.843 172.592 241.275 171.936 239.387 171.936C237.467 171.936 235.883 172.592 234.635 173.904C233.387 175.184 232.763 176.912 232.763 179.088C232.763 181.264 233.387 183.008 234.635 184.32C235.883 185.6 237.467 186.24 239.387 186.24ZM285.533 179.184C285.533 179.28 285.485 179.952 285.389 181.2H265.853C266.205 182.8 267.037 184.064 268.349 184.992C269.661 185.92 271.293 186.384 273.245 186.384C274.589 186.384 275.773 186.192 276.797 185.808C277.853 185.392 278.829 184.752 279.725 183.888L283.709 188.208C281.277 190.992 277.725 192.384 273.053 192.384C270.141 192.384 267.565 191.824 265.325 190.704C263.085 189.552 261.357 187.968 260.141 185.952C258.925 183.936 258.317 181.648 258.317 179.088C258.317 176.56 258.909 174.288 260.093 172.272C261.309 170.224 262.957 168.64 265.037 167.52C267.149 166.368 269.501 165.792 272.093 165.792C274.621 165.792 276.909 166.336 278.957 167.424C281.005 168.512 282.605 170.08 283.757 172.128C284.941 174.144 285.533 176.496 285.533 179.184ZM272.141 171.456C270.445 171.456 269.021 171.936 267.869 172.896C266.717 173.856 266.013 175.168 265.757 176.832H278.477C278.221 175.2 277.517 173.904 276.365 172.944C275.213 171.952 273.805 171.456 272.141 171.456ZM316.592 192.384C313.84 192.384 311.36 191.824 309.152 190.704C306.976 189.552 305.264 187.968 304.016 185.952C302.8 183.936 302.192 181.648 302.192 179.088C302.192 176.528 302.8 174.24 304.016 172.224C305.264 170.208 306.976 168.64 309.152 167.52C311.36 166.368 313.84 165.792 316.592 165.792C319.312 165.792 321.68 166.368 323.696 167.52C325.744 168.64 327.232 170.256 328.16 172.368L322.352 175.488C321.008 173.12 319.072 171.936 316.544 171.936C314.592 171.936 312.976 172.576 311.696 173.856C310.416 175.136 309.776 176.88 309.776 179.088C309.776 181.296 310.416 183.04 311.696 184.32C312.976 185.6 314.592 186.24 316.544 186.24C319.104 186.24 321.04 185.056 322.352 182.688L328.16 185.856C327.232 187.904 325.744 189.504 323.696 190.656C321.68 191.808 319.312 192.384 316.592 192.384ZM342.888 165.792C346.888 165.792 349.96 166.752 352.104 168.672C354.248 170.56 355.32 173.424 355.32 177.264V192H348.312V188.784C346.904 191.184 344.28 192.384 340.44 192.384C338.456 192.384 336.728 192.048 335.256 191.376C333.816 190.704 332.712 189.776 331.944 188.592C331.176 187.408 330.792 186.064 330.792 184.56C330.792 182.16 331.688 180.272 333.48 178.896C335.304 177.52 338.104 176.832 341.88 176.832H347.832C347.832 175.2 347.336 173.952 346.344 173.088C345.352 172.192 343.864 171.744 341.88 171.744C340.504 171.744 339.144 171.968 337.8 172.416C336.488 172.832 335.368 173.408 334.44 174.144L331.752 168.912C333.16 167.92 334.84 167.152 336.792 166.608C338.776 166.064 340.808 165.792 342.888 165.792ZM342.312 187.344C343.592 187.344 344.728 187.056 345.72 186.48C346.712 185.872 347.416 184.992 347.832 183.84V181.2H342.696C339.624 181.2 338.088 182.208 338.088 184.224C338.088 185.184 338.456 185.952 339.192 186.528C339.96 187.072 341 187.344 342.312 187.344ZM370.785 192.384C368.641 192.384 366.545 192.128 364.497 191.616C362.449 191.072 360.817 190.4 359.601 189.6L362.097 184.224C363.249 184.96 364.641 185.568 366.273 186.048C367.905 186.496 369.505 186.72 371.073 186.72C374.241 186.72 375.825 185.936 375.825 184.368C375.825 183.632 375.393 183.104 374.529 182.784C373.665 182.464 372.337 182.192 370.545 181.968C368.433 181.648 366.689 181.28 365.313 180.864C363.937 180.448 362.737 179.712 361.713 178.656C360.721 177.6 360.225 176.096 360.225 174.144C360.225 172.512 360.689 171.072 361.617 169.824C362.577 168.544 363.953 167.552 365.745 166.848C367.569 166.144 369.713 165.792 372.177 165.792C374.001 165.792 375.809 166 377.601 166.416C379.425 166.8 380.929 167.344 382.113 168.048L379.617 173.376C377.345 172.096 374.865 171.456 372.177 171.456C370.577 171.456 369.377 171.68 368.577 172.128C367.777 172.576 367.377 173.152 367.377 173.856C367.377 174.656 367.809 175.216 368.673 175.536C369.537 175.856 370.913 176.16 372.801 176.448C374.913 176.8 376.641 177.184 377.985 177.6C379.329 177.984 380.497 178.704 381.489 179.76C382.481 180.816 382.977 182.288 382.977 184.176C382.977 185.776 382.497 187.2 381.537 188.448C380.577 189.696 379.169 190.672 377.313 191.376C375.489 192.048 373.313 192.384 370.785 192.384ZM398.013 165.792C402.013 165.792 405.085 166.752 407.229 168.672C409.373 170.56 410.445 173.424 410.445 177.264V192H403.437V188.784C402.029 191.184 399.405 192.384 395.565 192.384C393.581 192.384 391.853 192.048 390.381 191.376C388.941 190.704 387.837 189.776 387.069 188.592C386.301 187.408 385.917 186.064 385.917 184.56C385.917 182.16 386.813 180.272 388.605 178.896C390.429 177.52 393.229 176.832 397.005 176.832H402.957C402.957 175.2 402.461 173.952 401.469 173.088C400.477 172.192 398.989 171.744 397.005 171.744C395.629 171.744 394.269 171.968 392.925 172.416C391.613 172.832 390.493 173.408 389.565 174.144L386.877 168.912C388.285 167.92 389.965 167.152 391.917 166.608C393.901 166.064 395.933 165.792 398.013 165.792ZM397.437 187.344C398.717 187.344 399.853 187.056 400.845 186.48C401.837 185.872 402.541 184.992 402.957 183.84V181.2H397.821C394.749 181.2 393.213 182.208 393.213 184.224C393.213 185.184 393.581 185.952 394.317 186.528C395.085 187.072 396.125 187.344 397.437 187.344ZM420.054 192.384C418.742 192.384 417.638 191.936 416.742 191.04C415.846 190.144 415.398 189.024 415.398 187.68C415.398 186.304 415.846 185.2 416.742 184.368C417.638 183.504 418.742 183.072 420.054 183.072C421.366 183.072 422.47 183.504 423.366 184.368C424.262 185.2 424.71 186.304 424.71 187.68C424.71 189.024 424.262 190.144 423.366 191.04C422.47 191.936 421.366 192.384 420.054 192.384Z" fill="#330A0A"/>
<path d="M361.961 12.752H368.585V18.512H362.153V38H354.665V18.512H350.681V12.752H354.665V11.6C354.665 8.656 355.529 6.32 357.257 4.592C359.017 2.864 361.481 2 364.649 2C365.769 2 366.825 2.128 367.817 2.384C368.841 2.608 369.689 2.944 370.361 3.392L368.393 8.816C367.529 8.208 366.521 7.904 365.369 7.904C363.097 7.904 361.961 9.152 361.961 11.648V12.752ZM382.263 11.792C386.263 11.792 389.335 12.752 391.479 14.672C393.623 16.56 394.695 19.424 394.695 23.264V38H387.687V34.784C386.279 37.184 383.655 38.384 379.815 38.384C377.831 38.384 376.103 38.048 374.631 37.376C373.191 36.704 372.087 35.776 371.319 34.592C370.551 33.408 370.167 32.064 370.167 30.56C370.167 28.16 371.063 26.272 372.855 24.896C374.679 23.52 377.479 22.832 381.255 22.832H387.207C387.207 21.2 386.711 19.952 385.719 19.088C384.727 18.192 383.239 17.744 381.255 17.744C379.879 17.744 378.519 17.968 377.175 18.416C375.863 18.832 374.743 19.408 373.815 20.144L371.127 14.912C372.535 13.92 374.215 13.152 376.167 12.608C378.151 12.064 380.183 11.792 382.263 11.792ZM381.687 33.344C382.967 33.344 384.103 33.056 385.095 32.48C386.087 31.872 386.791 30.992 387.207 29.84V27.2H382.071C378.999 27.2 377.463 28.208 377.463 30.224C377.463 31.184 377.831 31.952 378.567 32.528C379.335 33.072 380.375 33.344 381.687 33.344ZM385.143 1.952H393.207L384.519 8.864H378.663L385.143 1.952ZM414.233 38.384C411.481 38.384 409.001 37.824 406.793 36.704C404.617 35.552 402.905 33.968 401.657 31.952C400.441 29.936 399.833 27.648 399.833 25.088C399.833 22.528 400.441 20.24 401.657 18.224C402.905 16.208 404.617 14.64 406.793 13.52C409.001 12.368 411.481 11.792 414.233 11.792C416.953 11.792 419.321 12.368 421.337 13.52C423.385 14.64 424.873 16.256 425.801 18.368L419.993 21.488C418.649 19.12 416.713 17.936 414.185 17.936C412.233 17.936 410.617 18.576 409.337 19.856C408.057 21.136 407.417 22.88 407.417 25.088C407.417 27.296 408.057 29.04 409.337 30.32C410.617 31.6 412.233 32.24 414.185 32.24C416.745 32.24 418.681 31.056 419.993 28.688L425.801 31.856C424.873 33.904 423.385 35.504 421.337 36.656C419.321 37.808 416.953 38.384 414.233 38.384ZM430.112 12.176H437.6V38H430.112V12.176ZM433.856 8.576C432.48 8.576 431.36 8.176 430.496 7.376C429.632 6.576 429.2 5.584 429.2 4.4C429.2 3.216 429.632 2.224 430.496 1.424C431.36 0.623998 432.48 0.223997 433.856 0.223997C435.232 0.223997 436.352 0.607998 437.216 1.376C438.08 2.144 438.512 3.104 438.512 4.256C438.512 5.504 438.08 6.544 437.216 7.376C436.352 8.176 435.232 8.576 433.856 8.576ZM444.55 2.384H452.038V38H444.55V2.384ZM15.936 115.384C13.184 115.384 10.704 114.824 8.496 113.704C6.32 112.552 4.608 110.968 3.36 108.952C2.144 106.936 1.536 104.648 1.536 102.088C1.536 99.528 2.144 97.24 3.36 95.224C4.608 93.208 6.32 91.64 8.496 90.52C10.704 89.368 13.184 88.792 15.936 88.792C18.656 88.792 21.024 89.368 23.04 90.52C25.088 91.64 26.576 93.256 27.504 95.368L21.696 98.488C20.352 96.12 18.416 94.936 15.888 94.936C13.936 94.936 12.32 95.576 11.04 96.856C9.76 98.136 9.12 99.88 9.12 102.088C9.12 104.296 9.76 106.04 11.04 107.32C12.32 108.6 13.936 109.24 15.888 109.24C18.448 109.24 20.384 108.056 21.696 105.688L27.504 108.856C26.576 110.904 25.088 112.504 23.04 113.656C21.024 114.808 18.656 115.384 15.936 115.384ZM43.7753 115.384C41.0553 115.384 38.6073 114.824 36.4313 113.704C34.2873 112.552 32.6073 110.968 31.3913 108.952C30.1753 106.936 29.5673 104.648 29.5673 102.088C29.5673 99.528 30.1753 97.24 31.3913 95.224C32.6073 93.208 34.2873 91.64 36.4313 90.52C38.6073 89.368 41.0553 88.792 43.7753 88.792C46.4953 88.792 48.9273 89.368 51.0713 90.52C53.2153 91.64 54.8953 93.208 56.1113 95.224C57.3273 97.24 57.9353 99.528 57.9353 102.088C57.9353 104.648 57.3273 106.936 56.1113 108.952C54.8953 110.968 53.2153 112.552 51.0713 113.704C48.9273 114.824 46.4953 115.384 43.7753 115.384ZM43.7753 109.24C45.6953 109.24 47.2633 108.6 48.4793 107.32C49.7273 106.008 50.3513 104.264 50.3513 102.088C50.3513 99.912 49.7273 98.184 48.4793 96.904C47.2633 95.592 45.6953 94.936 43.7753 94.936C41.8553 94.936 40.2713 95.592 39.0233 96.904C37.7753 98.184 37.1513 99.912 37.1513 102.088C37.1513 104.264 37.7753 106.008 39.0233 107.32C40.2713 108.6 41.8553 109.24 43.7753 109.24ZM96.0124 88.792C99.2444 88.792 101.804 89.752 103.692 91.672C105.612 93.56 106.572 96.408 106.572 100.216V115H99.0844V101.368C99.0844 99.32 98.6524 97.8 97.7884 96.808C96.9564 95.784 95.7564 95.272 94.1884 95.272C92.4284 95.272 91.0364 95.848 90.0124 97C88.9884 98.12 88.4764 99.8 88.4764 102.04V115H80.9884V101.368C80.9884 97.304 79.3564 95.272 76.0924 95.272C74.3644 95.272 72.9884 95.848 71.9644 97C70.9404 98.12 70.4284 99.8 70.4284 102.04V115H62.9404V89.176H70.0924V92.152C71.0524 91.064 72.2204 90.232 73.5964 89.656C75.0044 89.08 76.5404 88.792 78.2044 88.792C80.0284 88.792 81.6764 89.16 83.1484 89.896C84.6204 90.6 85.8044 91.64 86.7004 93.016C87.7564 91.672 89.0844 90.632 90.6844 89.896C92.3164 89.16 94.0924 88.792 96.0124 88.792ZM128.548 88.792C130.948 88.792 133.124 89.352 135.076 90.472C137.06 91.56 138.612 93.112 139.732 95.128C140.852 97.112 141.412 99.432 141.412 102.088C141.412 104.744 140.852 107.08 139.732 109.096C138.612 111.08 137.06 112.632 135.076 113.752C133.124 114.84 130.948 115.384 128.548 115.384C125.252 115.384 122.66 114.344 120.772 112.264V124.312H113.284V89.176H120.436V92.152C122.292 89.912 124.996 88.792 128.548 88.792ZM127.252 109.24C129.172 109.24 130.74 108.6 131.956 107.32C133.204 106.008 133.828 104.264 133.828 102.088C133.828 99.912 133.204 98.184 131.956 96.904C130.74 95.592 129.172 94.936 127.252 94.936C125.332 94.936 123.748 95.592 122.5 96.904C121.284 98.184 120.676 99.912 120.676 102.088C120.676 104.264 121.284 106.008 122.5 107.32C123.748 108.6 125.332 109.24 127.252 109.24ZM153.577 92.584C154.473 91.336 155.673 90.392 157.177 89.752C158.713 89.112 160.473 88.792 162.457 88.792V95.704C161.625 95.64 161.065 95.608 160.777 95.608C158.633 95.608 156.953 96.216 155.737 97.432C154.521 98.616 153.913 100.408 153.913 102.808V115H146.425V89.176H153.577V92.584ZM177.185 88.792C181.185 88.792 184.257 89.752 186.401 91.672C188.545 93.56 189.617 96.424 189.617 100.264V115H182.609V111.784C181.201 114.184 178.577 115.384 174.737 115.384C172.753 115.384 171.025 115.048 169.553 114.376C168.113 113.704 167.009 112.776 166.241 111.592C165.473 110.408 165.089 109.064 165.089 107.56C165.089 105.16 165.985 103.272 167.777 101.896C169.601 100.52 172.401 99.832 176.177 99.832H182.129C182.129 98.2 181.633 96.952 180.641 96.088C179.649 95.192 178.161 94.744 176.177 94.744C174.801 94.744 173.441 94.968 172.097 95.416C170.785 95.832 169.665 96.408 168.737 97.144L166.049 91.912C167.457 90.92 169.137 90.152 171.089 89.608C173.073 89.064 175.105 88.792 177.185 88.792ZM176.609 110.344C177.889 110.344 179.025 110.056 180.017 109.48C181.009 108.872 181.713 107.992 182.129 106.84V104.2H176.993C173.921 104.2 172.385 105.208 172.385 107.224C172.385 108.184 172.753 108.952 173.489 109.528C174.257 110.072 175.297 110.344 176.609 110.344ZM408.673 88.792C411.073 88.792 413.249 89.352 415.201 90.472C417.185 91.56 418.737 93.112 419.857 95.128C420.977 97.112 421.537 99.432 421.537 102.088C421.537 104.744 420.977 107.08 419.857 109.096C418.737 111.08 417.185 112.632 415.201 113.752C413.249 114.84 411.073 115.384 408.673 115.384C405.377 115.384 402.785 114.344 400.897 112.264V124.312H393.409V89.176H400.561V92.152C402.417 89.912 405.121 88.792 408.673 88.792ZM407.377 109.24C409.297 109.24 410.865 108.6 412.081 107.32C413.329 106.008 413.953 104.264 413.953 102.088C413.953 99.912 413.329 98.184 412.081 96.904C410.865 95.592 409.297 94.936 407.377 94.936C405.457 94.936 403.873 95.592 402.625 96.904C401.409 98.184 400.801 99.912 400.801 102.088C400.801 104.264 401.409 106.008 402.625 107.32C403.873 108.6 405.457 109.24 407.377 109.24ZM451.846 102.184C451.846 102.28 451.798 102.952 451.702 104.2H432.166C432.518 105.8 433.35 107.064 434.662 107.992C435.974 108.92 437.606 109.384 439.558 109.384C440.902 109.384 442.086 109.192 443.11 108.808C444.166 108.392 445.142 107.752 446.038 106.888L450.022 111.208C447.59 113.992 444.038 115.384 439.366 115.384C436.454 115.384 433.878 114.824 431.638 113.704C429.398 112.552 427.67 110.968 426.454 108.952C425.238 106.936 424.63 104.648 424.63 102.088C424.63 99.56 425.222 97.288 426.406 95.272C427.622 93.224 429.27 91.64 431.35 90.52C433.462 89.368 435.814 88.792 438.406 88.792C440.934 88.792 443.222 89.336 445.27 90.424C447.318 91.512 448.918 93.08 450.07 95.128C451.254 97.144 451.846 99.496 451.846 102.184ZM438.454 94.456C436.758 94.456 435.334 94.936 434.182 95.896C433.03 96.856 432.326 98.168 432.07 99.832H444.79C444.534 98.2 443.83 96.904 442.678 95.944C441.526 94.952 440.118 94.456 438.454 94.456ZM463.983 92.584C464.879 91.336 466.079 90.392 467.583 89.752C469.119 89.112 470.879 88.792 472.863 88.792V95.704C472.031 95.64 471.471 95.608 471.183 95.608C469.039 95.608 467.359 96.216 466.143 97.432C464.927 98.616 464.319 100.408 464.319 102.808V115H456.831V89.176H463.983V92.584ZM494.862 113.752C494.126 114.296 493.214 114.712 492.126 115C491.07 115.256 489.95 115.384 488.766 115.384C485.694 115.384 483.31 114.6 481.614 113.032C479.95 111.464 479.118 109.16 479.118 106.12V95.512H475.134V89.752H479.118V83.464H486.606V89.752H493.038V95.512H486.606V106.024C486.606 107.112 486.878 107.96 487.422 108.568C487.998 109.144 488.798 109.432 489.822 109.432C491.006 109.432 492.014 109.112 492.846 108.472L494.862 113.752ZM510.557 115.384C507.837 115.384 505.389 114.824 503.213 113.704C501.069 112.552 499.389 110.968 498.173 108.952C496.957 106.936 496.349 104.648 496.349 102.088C496.349 99.528 496.957 97.24 498.173 95.224C499.389 93.208 501.069 91.64 503.213 90.52C505.389 89.368 507.837 88.792 510.557 88.792C513.277 88.792 515.709 89.368 517.853 90.52C519.997 91.64 521.677 93.208 522.893 95.224C524.109 97.24 524.717 99.528 524.717 102.088C524.717 104.648 524.109 106.936 522.893 108.952C521.677 110.968 519.997 112.552 517.853 113.704C515.709 114.824 513.277 115.384 510.557 115.384ZM510.557 109.24C512.477 109.24 514.045 108.6 515.261 107.32C516.509 106.008 517.133 104.264 517.133 102.088C517.133 99.912 516.509 98.184 515.261 96.904C514.045 95.592 512.477 94.936 510.557 94.936C508.637 94.936 507.053 95.592 505.805 96.904C504.557 98.184 503.933 99.912 503.933 102.088C503.933 104.264 504.557 106.008 505.805 107.32C507.053 108.6 508.637 109.24 510.557 109.24Z" fill="#BE0E02"/>
</svg>
