<svg width="693" height="112" viewBox="0 0 693 112" fill="none" xmlns="http://www.w3.org/2000/svg">
<path d="M7.752 7.632V17.856H23.976V23.136H7.752V36H1.512V2.4H26.04V7.632H7.752ZM40.4936 10.08C44.2696 10.08 47.1496 10.992 49.1336 12.816C51.1496 14.608 52.1576 17.328 52.1576 20.976V36H46.4936V32.88C45.7576 34 44.7016 34.864 43.3256 35.472C41.9816 36.048 40.3496 36.336 38.4296 36.336C36.5096 36.336 34.8296 36.016 33.3896 35.376C31.9496 34.704 30.8296 33.792 30.0296 32.64C29.2616 31.456 28.8776 30.128 28.8776 28.656C28.8776 26.352 29.7256 24.512 31.4216 23.136C33.1496 21.728 35.8536 21.024 39.5336 21.024H46.1576V20.64C46.1576 18.848 45.6136 17.472 44.5256 16.512C43.4696 15.552 41.8856 15.072 39.7736 15.072C38.3336 15.072 36.9096 15.296 35.5016 15.744C34.1256 16.192 32.9576 16.816 31.9976 17.616L29.6456 13.248C30.9896 12.224 32.6056 11.44 34.4936 10.896C36.3816 10.352 38.3816 10.08 40.4936 10.08ZM39.6776 31.968C41.1816 31.968 42.5096 31.632 43.6616 30.96C44.8456 30.256 45.6776 29.264 46.1576 27.984V25.008H39.9656C36.5096 25.008 34.7816 26.144 34.7816 28.416C34.7816 29.504 35.2136 30.368 36.0776 31.008C36.9416 31.648 38.1416 31.968 39.6776 31.968ZM59.8579 0.383998H65.8579V36H59.8579V0.383998ZM90.4065 34.608C89.7025 35.184 88.8385 35.616 87.8145 35.904C86.8225 36.192 85.7665 36.336 84.6465 36.336C81.8305 36.336 79.6545 35.6 78.1185 34.128C76.5825 32.656 75.8145 30.512 75.8145 27.696V15.36H71.5905V10.56H75.8145V4.704H81.8145V10.56H88.6785V15.36H81.8145V27.552C81.8145 28.8 82.1185 29.76 82.7265 30.432C83.3345 31.072 84.2145 31.392 85.3665 31.392C86.7105 31.392 87.8305 31.04 88.7265 30.336L90.4065 34.608ZM105.134 10.08C108.91 10.08 111.79 10.992 113.774 12.816C115.79 14.608 116.798 17.328 116.798 20.976V36H111.134V32.88C110.398 34 109.342 34.864 107.966 35.472C106.622 36.048 104.99 36.336 103.07 36.336C101.15 36.336 99.4703 36.016 98.0303 35.376C96.5903 34.704 95.4703 33.792 94.6703 32.64C93.9023 31.456 93.5183 30.128 93.5183 28.656C93.5183 26.352 94.3663 24.512 96.0623 23.136C97.7903 21.728 100.494 21.024 104.174 21.024H110.798V20.64C110.798 18.848 110.254 17.472 109.166 16.512C108.11 15.552 106.526 15.072 104.414 15.072C102.974 15.072 101.55 15.296 100.142 15.744C98.7663 16.192 97.5983 16.816 96.6383 17.616L94.2863 13.248C95.6303 12.224 97.2463 11.44 99.1343 10.896C101.022 10.352 103.022 10.08 105.134 10.08ZM104.318 31.968C105.822 31.968 107.15 31.632 108.302 30.96C109.486 30.256 110.318 29.264 110.798 27.984V25.008H104.606C101.15 25.008 99.4223 26.144 99.4223 28.416C99.4223 29.504 99.8543 30.368 100.718 31.008C101.582 31.648 102.782 31.968 104.318 31.968ZM320.207 10.08C322.703 10.08 324.927 10.624 326.879 11.712C328.863 12.8 330.415 14.336 331.535 16.32C332.655 18.304 333.215 20.592 333.215 23.184C333.215 25.776 332.655 28.08 331.535 30.096C330.415 32.08 328.863 33.616 326.879 34.704C324.927 35.792 322.703 36.336 320.207 36.336C316.751 36.336 314.015 35.184 311.999 32.88V45.312H305.999V10.368H311.711V13.728C312.703 12.512 313.919 11.6 315.359 10.992C316.831 10.384 318.447 10.08 320.207 10.08ZM319.535 31.2C321.743 31.2 323.551 30.464 324.959 28.992C326.399 27.52 327.119 25.584 327.119 23.184C327.119 20.784 326.399 18.848 324.959 17.376C323.551 15.904 321.743 15.168 319.535 15.168C318.095 15.168 316.799 15.504 315.647 16.176C314.495 16.816 313.583 17.744 312.911 18.96C312.239 20.176 311.903 21.584 311.903 23.184C311.903 24.784 312.239 26.192 312.911 27.408C313.583 28.624 314.495 29.568 315.647 30.24C316.799 30.88 318.095 31.2 319.535 31.2ZM348.369 10.08C352.145 10.08 355.025 10.992 357.009 12.816C359.025 14.608 360.033 17.328 360.033 20.976V36H354.369V32.88C353.633 34 352.577 34.864 351.201 35.472C349.857 36.048 348.225 36.336 346.305 36.336C344.385 36.336 342.705 36.016 341.265 35.376C339.825 34.704 338.705 33.792 337.905 32.64C337.137 31.456 336.753 30.128 336.753 28.656C336.753 26.352 337.601 24.512 339.297 23.136C341.025 21.728 343.729 21.024 347.409 21.024H354.033V20.64C354.033 18.848 353.489 17.472 352.401 16.512C351.345 15.552 349.761 15.072 347.649 15.072C346.209 15.072 344.785 15.296 343.377 15.744C342.001 16.192 340.833 16.816 339.873 17.616L337.521 13.248C338.865 12.224 340.481 11.44 342.369 10.896C344.257 10.352 346.257 10.08 348.369 10.08ZM347.553 31.968C349.057 31.968 350.385 31.632 351.537 30.96C352.721 30.256 353.553 29.264 354.033 27.984V25.008H347.841C344.385 25.008 342.657 26.144 342.657 28.416C342.657 29.504 343.089 30.368 343.953 31.008C344.817 31.648 346.017 31.968 347.553 31.968ZM373.445 14.112C375.173 11.424 378.213 10.08 382.565 10.08V15.792C382.053 15.696 381.589 15.648 381.173 15.648C378.837 15.648 377.013 16.336 375.701 17.712C374.389 19.056 373.733 21.008 373.733 23.568V36H367.733V10.368H373.445V14.112ZM397.306 10.08C401.082 10.08 403.962 10.992 405.946 12.816C407.962 14.608 408.97 17.328 408.97 20.976V36H403.306V32.88C402.57 34 401.514 34.864 400.138 35.472C398.794 36.048 397.162 36.336 395.242 36.336C393.322 36.336 391.642 36.016 390.202 35.376C388.762 34.704 387.642 33.792 386.842 32.64C386.074 31.456 385.69 30.128 385.69 28.656C385.69 26.352 386.538 24.512 388.234 23.136C389.962 21.728 392.666 21.024 396.346 21.024H402.97V20.64C402.97 18.848 402.426 17.472 401.338 16.512C400.282 15.552 398.698 15.072 396.586 15.072C395.146 15.072 393.722 15.296 392.314 15.744C390.938 16.192 389.77 16.816 388.81 17.616L386.458 13.248C387.802 12.224 389.418 11.44 391.306 10.896C393.194 10.352 395.194 10.08 397.306 10.08ZM396.49 31.968C397.994 31.968 399.322 31.632 400.474 30.96C401.658 30.256 402.49 29.264 402.97 27.984V25.008H396.778C393.322 25.008 391.594 26.144 391.594 28.416C391.594 29.504 392.026 30.368 392.89 31.008C393.754 31.648 394.954 31.968 396.49 31.968ZM453.936 10.368L442.944 36H436.752L425.76 10.368H432L439.968 29.376L448.176 10.368H453.936ZM468.503 36.336C465.911 36.336 463.575 35.776 461.495 34.656C459.415 33.536 457.783 31.984 456.599 30C455.447 27.984 454.871 25.712 454.871 23.184C454.871 20.656 455.447 18.4 456.599 16.416C457.783 14.432 459.415 12.88 461.495 11.76C463.575 10.64 465.911 10.08 468.503 10.08C471.127 10.08 473.479 10.64 475.559 11.76C477.639 12.88 479.255 14.432 480.407 16.416C481.591 18.4 482.183 20.656 482.183 23.184C482.183 25.712 481.591 27.984 480.407 30C479.255 31.984 477.639 33.536 475.559 34.656C473.479 35.776 471.127 36.336 468.503 36.336ZM468.503 31.2C470.711 31.2 472.535 30.464 473.975 28.992C475.415 27.52 476.135 25.584 476.135 23.184C476.135 20.784 475.415 18.848 473.975 17.376C472.535 15.904 470.711 15.168 468.503 15.168C466.295 15.168 464.471 15.904 463.031 17.376C461.623 18.848 460.919 20.784 460.919 23.184C460.919 25.584 461.623 27.52 463.031 28.992C464.471 30.464 466.295 31.2 468.503 31.2ZM499.68 36.336C497.024 36.336 494.64 35.776 492.528 34.656C490.416 33.536 488.768 31.984 487.584 30C486.4 27.984 485.808 25.712 485.808 23.184C485.808 20.656 486.4 18.4 487.584 16.416C488.768 14.432 490.4 12.88 492.48 11.76C494.592 10.64 496.992 10.08 499.68 10.08C502.208 10.08 504.416 10.592 506.304 11.616C508.224 12.64 509.664 14.112 510.624 16.032L506.016 18.72C505.28 17.536 504.352 16.656 503.232 16.08C502.144 15.472 500.944 15.168 499.632 15.168C497.392 15.168 495.536 15.904 494.064 17.376C492.592 18.816 491.856 20.752 491.856 23.184C491.856 25.616 492.576 27.568 494.016 29.04C495.488 30.48 497.36 31.2 499.632 31.2C500.944 31.2 502.144 30.912 503.232 30.336C504.352 29.728 505.28 28.832 506.016 27.648L510.624 30.336C509.632 32.256 508.176 33.744 506.256 34.8C504.368 35.824 502.176 36.336 499.68 36.336ZM539.532 23.328C539.532 23.744 539.5 24.336 539.436 25.104H519.324C519.676 26.992 520.588 28.496 522.06 29.616C523.564 30.704 525.42 31.248 527.628 31.248C530.444 31.248 532.764 30.32 534.588 28.464L537.804 32.16C536.652 33.536 535.196 34.576 533.436 35.28C531.676 35.984 529.692 36.336 527.484 36.336C524.668 36.336 522.188 35.776 520.044 34.656C517.9 33.536 516.236 31.984 515.052 30C513.9 27.984 513.324 25.712 513.324 23.184C513.324 20.688 513.884 18.448 515.004 16.464C516.156 14.448 517.74 12.88 519.756 11.76C521.772 10.64 524.044 10.08 526.572 10.08C529.068 10.08 531.292 10.64 533.244 11.76C535.228 12.848 536.764 14.4 537.852 16.416C538.972 18.4 539.532 20.704 539.532 23.328ZM526.572 14.88C524.652 14.88 523.02 15.456 521.676 16.608C520.364 17.728 519.564 19.232 519.276 21.12H533.82C533.564 19.264 532.78 17.76 531.468 16.608C530.156 15.456 528.524 14.88 526.572 14.88ZM530.652 6.864L526.428 3.312L522.204 6.864H517.26L523.692 0.287999H529.164L535.596 6.864H530.652ZM568.353 10.08C572.129 10.08 575.009 10.992 576.993 12.816C579.009 14.608 580.017 17.328 580.017 20.976V36H574.353V32.88C573.617 34 572.561 34.864 571.185 35.472C569.841 36.048 568.209 36.336 566.289 36.336C564.369 36.336 562.689 36.016 561.249 35.376C559.809 34.704 558.689 33.792 557.889 32.64C557.121 31.456 556.737 30.128 556.737 28.656C556.737 26.352 557.585 24.512 559.281 23.136C561.009 21.728 563.713 21.024 567.393 21.024H574.017V20.64C574.017 18.848 573.473 17.472 572.385 16.512C571.329 15.552 569.745 15.072 567.633 15.072C566.193 15.072 564.769 15.296 563.361 15.744C561.985 16.192 560.817 16.816 559.857 17.616L557.505 13.248C558.849 12.224 560.465 11.44 562.353 10.896C564.241 10.352 566.241 10.08 568.353 10.08ZM567.537 31.968C569.041 31.968 570.369 31.632 571.521 30.96C572.705 30.256 573.537 29.264 574.017 27.984V25.008H567.825C564.369 25.008 562.641 26.144 562.641 28.416C562.641 29.504 563.073 30.368 563.937 31.008C564.801 31.648 566.001 31.968 567.537 31.968ZM599.712 36.336C597.056 36.336 594.672 35.776 592.56 34.656C590.448 33.536 588.8 31.984 587.616 30C586.432 27.984 585.84 25.712 585.84 23.184C585.84 20.656 586.432 18.4 587.616 16.416C588.8 14.432 590.432 12.88 592.512 11.76C594.624 10.64 597.024 10.08 599.712 10.08C602.24 10.08 604.448 10.592 606.336 11.616C608.256 12.64 609.696 14.112 610.656 16.032L606.048 18.72C605.312 17.536 604.384 16.656 603.264 16.08C602.176 15.472 600.976 15.168 599.664 15.168C597.424 15.168 595.568 15.904 594.096 17.376C592.624 18.816 591.888 20.752 591.888 23.184C591.888 25.616 592.608 27.568 594.048 29.04C595.52 30.48 597.392 31.2 599.664 31.2C600.976 31.2 602.176 30.912 603.264 30.336C604.384 29.728 605.312 28.832 606.048 27.648L610.656 30.336C609.664 32.256 608.208 33.744 606.288 34.8C604.4 35.824 602.208 36.336 599.712 36.336ZM630.152 10.08C633.384 10.08 635.976 11.024 637.928 12.912C639.88 14.8 640.856 17.6 640.856 21.312V36H634.856V22.08C634.856 19.84 634.328 18.16 633.272 17.04C632.216 15.888 630.712 15.312 628.76 15.312C626.552 15.312 624.808 15.984 623.528 17.328C622.248 18.64 621.608 20.544 621.608 23.04V36H615.608V0.383998H621.608V13.344C622.6 12.288 623.816 11.488 625.256 10.944C626.728 10.368 628.36 10.08 630.152 10.08ZM658.259 10.08C662.035 10.08 664.915 10.992 666.899 12.816C668.915 14.608 669.923 17.328 669.923 20.976V36H664.259V32.88C663.523 34 662.467 34.864 661.091 35.472C659.747 36.048 658.115 36.336 656.195 36.336C654.275 36.336 652.595 36.016 651.155 35.376C649.715 34.704 648.595 33.792 647.795 32.64C647.027 31.456 646.643 30.128 646.643 28.656C646.643 26.352 647.491 24.512 649.187 23.136C650.915 21.728 653.619 21.024 657.299 21.024H663.923V20.64C663.923 18.848 663.379 17.472 662.291 16.512C661.235 15.552 659.651 15.072 657.539 15.072C656.099 15.072 654.675 15.296 653.267 15.744C651.891 16.192 650.723 16.816 649.763 17.616L647.411 13.248C648.755 12.224 650.371 11.44 652.259 10.896C654.147 10.352 656.147 10.08 658.259 10.08ZM657.443 31.968C658.947 31.968 660.275 31.632 661.427 30.96C662.611 30.256 663.443 29.264 663.923 27.984V25.008H657.731C654.275 25.008 652.547 26.144 652.547 28.416C652.547 29.504 652.979 30.368 653.843 31.008C654.707 31.648 655.907 31.968 657.443 31.968ZM683.336 14.112C685.064 11.424 688.104 10.08 692.456 10.08V15.792C691.944 15.696 691.48 15.648 691.064 15.648C688.728 15.648 686.904 16.336 685.592 17.712C684.28 19.056 683.624 21.008 683.624 23.568V36H677.624V10.368H683.336V14.112ZM25.752 76.368V102H20.04V98.736C19.08 99.888 17.88 100.784 16.44 101.424C15 102.032 13.448 102.336 11.784 102.336C8.36 102.336 5.656 101.392 3.672 99.504C1.72 97.584 0.744 94.752 0.744 91.008V76.368H6.744V90.192C6.744 92.496 7.256 94.224 8.28 95.376C9.336 96.496 10.824 97.056 12.744 97.056C14.888 97.056 16.584 96.4 17.832 95.088C19.112 93.744 19.752 91.824 19.752 89.328V76.368H25.752ZM65.9599 76.08C69.1919 76.08 71.7519 77.024 73.6399 78.912C75.5279 80.768 76.4719 83.568 76.4719 87.312V102H70.4719V88.08C70.4719 85.84 69.9759 84.16 68.9839 83.04C67.9919 81.888 66.5679 81.312 64.7119 81.312C62.6959 81.312 61.0799 81.984 59.8639 83.328C58.6479 84.64 58.0399 86.528 58.0399 88.992V102H52.0399V88.08C52.0399 85.84 51.5439 84.16 50.5519 83.04C49.5599 81.888 48.1359 81.312 46.2799 81.312C44.2319 81.312 42.5999 81.968 41.3839 83.28C40.1999 84.592 39.6079 86.496 39.6079 88.992V102H33.6079V76.368H39.3199V79.632C40.2799 78.48 41.4799 77.6 42.9199 76.992C44.3599 76.384 45.9599 76.08 47.7199 76.08C49.6399 76.08 51.3359 76.448 52.8079 77.184C54.3119 77.888 55.4959 78.944 56.3599 80.352C57.4159 79.008 58.7759 77.968 60.4399 77.232C62.1039 76.464 63.9439 76.08 65.9599 76.08ZM129.757 76.08C132.989 76.08 135.549 77.024 137.437 78.912C139.325 80.768 140.269 83.568 140.269 87.312V102H134.269V88.08C134.269 85.84 133.773 84.16 132.781 83.04C131.789 81.888 130.365 81.312 128.509 81.312C126.493 81.312 124.877 81.984 123.661 83.328C122.445 84.64 121.837 86.528 121.837 88.992V102H115.837V88.08C115.837 85.84 115.341 84.16 114.349 83.04C113.357 81.888 111.933 81.312 110.077 81.312C108.029 81.312 106.397 81.968 105.181 83.28C103.997 84.592 103.405 86.496 103.405 88.992V102H97.4048V76.368H103.117V79.632C104.077 78.48 105.277 77.6 106.717 76.992C108.157 76.384 109.757 76.08 111.517 76.08C113.437 76.08 115.133 76.448 116.605 77.184C118.109 77.888 119.293 78.944 120.157 80.352C121.213 79.008 122.573 77.968 124.237 77.232C125.901 76.464 127.741 76.08 129.757 76.08ZM172.266 89.328C172.266 89.744 172.234 90.336 172.17 91.104H152.058C152.41 92.992 153.322 94.496 154.794 95.616C156.298 96.704 158.154 97.248 160.362 97.248C163.178 97.248 165.498 96.32 167.322 94.464L170.538 98.16C169.386 99.536 167.93 100.576 166.17 101.28C164.41 101.984 162.426 102.336 160.218 102.336C157.402 102.336 154.922 101.776 152.778 100.656C150.634 99.536 148.97 97.984 147.786 96C146.634 93.984 146.058 91.712 146.058 89.184C146.058 86.688 146.618 84.448 147.738 82.464C148.89 80.448 150.474 78.88 152.49 77.76C154.506 76.64 156.778 76.08 159.306 76.08C161.802 76.08 164.026 76.64 165.978 77.76C167.962 78.848 169.498 80.4 170.586 82.416C171.706 84.4 172.266 86.704 172.266 89.328ZM159.306 80.88C157.386 80.88 155.754 81.456 154.41 82.608C153.098 83.728 152.298 85.232 152.01 87.12H166.554C166.298 85.264 165.514 83.76 164.202 82.608C162.89 81.456 161.258 80.88 159.306 80.88ZM183.742 80.112C185.47 77.424 188.51 76.08 192.862 76.08V81.792C192.35 81.696 191.886 81.648 191.47 81.648C189.134 81.648 187.31 82.336 185.998 83.712C184.686 85.056 184.03 87.008 184.03 89.568V102H178.03V76.368H183.742V80.112ZM209.477 102.336C206.821 102.336 204.437 101.776 202.325 100.656C200.213 99.536 198.565 97.984 197.381 96C196.197 93.984 195.605 91.712 195.605 89.184C195.605 86.656 196.197 84.4 197.381 82.416C198.565 80.432 200.197 78.88 202.277 77.76C204.389 76.64 206.789 76.08 209.477 76.08C212.005 76.08 214.213 76.592 216.101 77.616C218.021 78.64 219.461 80.112 220.421 82.032L215.813 84.72C215.077 83.536 214.149 82.656 213.029 82.08C211.941 81.472 210.741 81.168 209.429 81.168C207.189 81.168 205.333 81.904 203.861 83.376C202.389 84.816 201.653 86.752 201.653 89.184C201.653 91.616 202.373 93.568 203.813 95.04C205.285 96.48 207.157 97.2 209.429 97.2C210.741 97.2 211.941 96.912 213.029 96.336C214.149 95.728 215.077 94.832 215.813 93.648L220.421 96.336C219.429 98.256 217.973 99.744 216.053 100.8C214.165 101.824 211.973 102.336 209.477 102.336ZM235.4 76.08C239.176 76.08 242.056 76.992 244.04 78.816C246.056 80.608 247.064 83.328 247.064 86.976V102H241.4V98.88C240.664 100 239.608 100.864 238.232 101.472C236.888 102.048 235.256 102.336 233.336 102.336C231.416 102.336 229.736 102.016 228.296 101.376C226.856 100.704 225.736 99.792 224.936 98.64C224.168 97.456 223.784 96.128 223.784 94.656C223.784 92.352 224.632 90.512 226.328 89.136C228.056 87.728 230.76 87.024 234.44 87.024H241.064V86.64C241.064 84.848 240.52 83.472 239.432 82.512C238.376 81.552 236.792 81.072 234.68 81.072C233.24 81.072 231.816 81.296 230.408 81.744C229.032 82.192 227.864 82.816 226.904 83.616L224.552 79.248C225.896 78.224 227.512 77.44 229.4 76.896C231.288 76.352 233.288 76.08 235.4 76.08ZM234.584 97.968C236.088 97.968 237.416 97.632 238.568 96.96C239.752 96.256 240.584 95.264 241.064 93.984V91.008H234.872C231.416 91.008 229.688 92.144 229.688 94.416C229.688 95.504 230.12 96.368 230.984 97.008C231.848 97.648 233.048 97.968 234.584 97.968ZM280.103 66.384V102H274.343V98.688C273.351 99.904 272.119 100.816 270.647 101.424C269.207 102.032 267.607 102.336 265.847 102.336C263.383 102.336 261.159 101.792 259.175 100.704C257.223 99.616 255.687 98.08 254.567 96.096C253.447 94.08 252.887 91.776 252.887 89.184C252.887 86.592 253.447 84.304 254.567 82.32C255.687 80.336 257.223 78.8 259.175 77.712C261.159 76.624 263.383 76.08 265.847 76.08C267.543 76.08 269.095 76.368 270.503 76.944C271.911 77.52 273.111 78.384 274.103 79.536V66.384H280.103ZM266.567 97.2C268.007 97.2 269.303 96.88 270.455 96.24C271.607 95.568 272.519 94.624 273.191 93.408C273.863 92.192 274.199 90.784 274.199 89.184C274.199 87.584 273.863 86.176 273.191 84.96C272.519 83.744 271.607 82.816 270.455 82.176C269.303 81.504 268.007 81.168 266.567 81.168C265.127 81.168 263.831 81.504 262.679 82.176C261.527 82.816 260.615 83.744 259.943 84.96C259.271 86.176 258.935 87.584 258.935 89.184C258.935 90.784 259.271 92.192 259.943 93.408C260.615 94.624 261.527 95.568 262.679 96.24C263.831 96.88 265.127 97.2 266.567 97.2ZM299.472 102.336C296.88 102.336 294.544 101.776 292.464 100.656C290.384 99.536 288.752 97.984 287.568 96C286.416 93.984 285.84 91.712 285.84 89.184C285.84 86.656 286.416 84.4 287.568 82.416C288.752 80.432 290.384 78.88 292.464 77.76C294.544 76.64 296.88 76.08 299.472 76.08C302.096 76.08 304.448 76.64 306.528 77.76C308.608 78.88 310.224 80.432 311.376 82.416C312.56 84.4 313.152 86.656 313.152 89.184C313.152 91.712 312.56 93.984 311.376 96C310.224 97.984 308.608 99.536 306.528 100.656C304.448 101.776 302.096 102.336 299.472 102.336ZM299.472 97.2C301.68 97.2 303.504 96.464 304.944 94.992C306.384 93.52 307.104 91.584 307.104 89.184C307.104 86.784 306.384 84.848 304.944 83.376C303.504 81.904 301.68 81.168 299.472 81.168C297.264 81.168 295.44 81.904 294 83.376C292.592 84.848 291.888 86.784 291.888 89.184C291.888 91.584 292.592 93.52 294 94.992C295.44 96.464 297.264 97.2 299.472 97.2ZM477.894 76.08C480.39 76.08 482.614 76.624 484.566 77.712C486.55 78.8 488.102 80.336 489.222 82.32C490.342 84.304 490.902 86.592 490.902 89.184C490.902 91.776 490.342 94.08 489.222 96.096C488.102 98.08 486.55 99.616 484.566 100.704C482.614 101.792 480.39 102.336 477.894 102.336C474.438 102.336 471.702 101.184 469.686 98.88V111.312H463.686V76.368H469.398V79.728C470.39 78.512 471.606 77.6 473.046 76.992C474.518 76.384 476.134 76.08 477.894 76.08ZM477.222 97.2C479.43 97.2 481.238 96.464 482.646 94.992C484.086 93.52 484.806 91.584 484.806 89.184C484.806 86.784 484.086 84.848 482.646 83.376C481.238 81.904 479.43 81.168 477.222 81.168C475.782 81.168 474.486 81.504 473.334 82.176C472.182 82.816 471.27 83.744 470.598 84.96C469.926 86.176 469.59 87.584 469.59 89.184C469.59 90.784 469.926 92.192 470.598 93.408C471.27 94.624 472.182 95.568 473.334 96.24C474.486 96.88 475.782 97.2 477.222 97.2ZM502.304 80.112C504.032 77.424 507.072 76.08 511.424 76.08V81.792C510.912 81.696 510.448 81.648 510.032 81.648C507.696 81.648 505.872 82.336 504.56 83.712C503.248 85.056 502.592 87.008 502.592 89.568V102H496.592V76.368H502.304V80.112ZM527.8 102.336C525.208 102.336 522.872 101.776 520.792 100.656C518.712 99.536 517.08 97.984 515.896 96C514.744 93.984 514.168 91.712 514.168 89.184C514.168 86.656 514.744 84.4 515.896 82.416C517.08 80.432 518.712 78.88 520.792 77.76C522.872 76.64 525.208 76.08 527.8 76.08C530.424 76.08 532.776 76.64 534.856 77.76C536.936 78.88 538.552 80.432 539.704 82.416C540.888 84.4 541.48 86.656 541.48 89.184C541.48 91.712 540.888 93.984 539.704 96C538.552 97.984 536.936 99.536 534.856 100.656C532.776 101.776 530.424 102.336 527.8 102.336ZM527.8 97.2C530.008 97.2 531.832 96.464 533.272 94.992C534.712 93.52 535.432 91.584 535.432 89.184C535.432 86.784 534.712 84.848 533.272 83.376C531.832 81.904 530.008 81.168 527.8 81.168C525.592 81.168 523.768 81.904 522.328 83.376C520.92 84.848 520.216 86.784 520.216 89.184C520.216 91.584 520.92 93.52 522.328 94.992C523.768 96.464 525.592 97.2 527.8 97.2ZM562.694 102L556.118 93.12L549.493 102H542.87L552.854 88.992L543.302 76.368H549.974L556.262 84.768L562.55 76.368H569.03L559.43 88.896L569.462 102H562.694ZM573.889 76.368H579.889V102H573.889V76.368ZM576.913 72.144C575.825 72.144 574.913 71.808 574.177 71.136C573.441 70.432 573.073 69.568 573.073 68.544C573.073 67.52 573.441 66.672 574.177 66C574.913 65.296 575.825 64.944 576.913 64.944C578.001 64.944 578.913 65.28 579.649 65.952C580.385 66.592 580.753 67.408 580.753 68.4C580.753 69.456 580.385 70.352 579.649 71.088C578.945 71.792 578.033 72.144 576.913 72.144ZM620.116 76.08C623.348 76.08 625.908 77.024 627.796 78.912C629.684 80.768 630.628 83.568 630.628 87.312V102H624.628V88.08C624.628 85.84 624.132 84.16 623.14 83.04C622.148 81.888 620.724 81.312 618.868 81.312C616.852 81.312 615.236 81.984 614.02 83.328C612.804 84.64 612.196 86.528 612.196 88.992V102H606.196V88.08C606.196 85.84 605.7 84.16 604.708 83.04C603.716 81.888 602.292 81.312 600.436 81.312C598.388 81.312 596.756 81.968 595.54 83.28C594.356 84.592 593.764 86.496 593.764 88.992V102H587.764V76.368H593.476V79.632C594.436 78.48 595.636 77.6 597.076 76.992C598.516 76.384 600.116 76.08 601.876 76.08C603.796 76.08 605.492 76.448 606.964 77.184C608.468 77.888 609.652 78.944 610.516 80.352C611.572 79.008 612.932 77.968 614.596 77.232C616.26 76.464 618.1 76.08 620.116 76.08ZM650.05 102.336C647.458 102.336 645.122 101.776 643.042 100.656C640.962 99.536 639.33 97.984 638.146 96C636.994 93.984 636.418 91.712 636.418 89.184C636.418 86.656 636.994 84.4 638.146 82.416C639.33 80.432 640.962 78.88 643.042 77.76C645.122 76.64 647.458 76.08 650.05 76.08C652.674 76.08 655.026 76.64 657.106 77.76C659.186 78.88 660.802 80.432 661.954 82.416C663.138 84.4 663.73 86.656 663.73 89.184C663.73 91.712 663.138 93.984 661.954 96C660.802 97.984 659.186 99.536 657.106 100.656C655.026 101.776 652.674 102.336 650.05 102.336ZM650.05 97.2C652.258 97.2 654.082 96.464 655.522 94.992C656.962 93.52 657.682 91.584 657.682 89.184C657.682 86.784 656.962 84.848 655.522 83.376C654.082 81.904 652.258 81.168 650.05 81.168C647.842 81.168 646.018 81.904 644.578 83.376C643.17 84.848 642.466 86.784 642.466 89.184C642.466 91.584 643.17 93.52 644.578 94.992C646.018 96.464 647.842 97.2 650.05 97.2ZM668.699 68.4H675.803L674.603 90.864H669.851L668.699 68.4ZM672.251 102.336C671.131 102.336 670.203 101.984 669.467 101.28C668.731 100.544 668.363 99.648 668.363 98.592C668.363 97.536 668.731 96.656 669.467 95.952C670.203 95.248 671.131 94.896 672.251 94.896C673.339 94.896 674.235 95.248 674.939 95.952C675.675 96.656 676.043 97.536 676.043 98.592C676.043 99.648 675.675 100.544 674.939 101.28C674.235 101.984 673.339 102.336 672.251 102.336Z" fill="black"/>
<path d="M151.972 10.08C154.468 10.08 156.692 10.624 158.644 11.712C160.628 12.8 162.18 14.336 163.3 16.32C164.42 18.304 164.98 20.592 164.98 23.184C164.98 25.776 164.42 28.08 163.3 30.096C162.18 32.08 160.628 33.616 158.644 34.704C156.692 35.792 154.468 36.336 151.972 36.336C148.516 36.336 145.78 35.184 143.764 32.88V45.312H137.764V10.368H143.476V13.728C144.468 12.512 145.684 11.6 147.124 10.992C148.596 10.384 150.212 10.08 151.972 10.08ZM151.3 31.2C153.508 31.2 155.316 30.464 156.724 28.992C158.164 27.52 158.884 25.584 158.884 23.184C158.884 20.784 158.164 18.848 156.724 17.376C155.316 15.904 153.508 15.168 151.3 15.168C149.86 15.168 148.564 15.504 147.412 16.176C146.26 16.816 145.348 17.744 144.676 18.96C144.004 20.176 143.668 21.584 143.668 23.184C143.668 24.784 144.004 26.192 144.676 27.408C145.348 28.624 146.26 29.568 147.412 30.24C148.564 30.88 149.86 31.2 151.3 31.2ZM182.19 36.336C179.598 36.336 177.262 35.776 175.182 34.656C173.102 33.536 171.47 31.984 170.286 30C169.134 27.984 168.558 25.712 168.558 23.184C168.558 20.656 169.134 18.4 170.286 16.416C171.47 14.432 173.102 12.88 175.182 11.76C177.262 10.64 179.598 10.08 182.19 10.08C184.814 10.08 187.166 10.64 189.246 11.76C191.326 12.88 192.942 14.432 194.094 16.416C195.278 18.4 195.87 20.656 195.87 23.184C195.87 25.712 195.278 27.984 194.094 30C192.942 31.984 191.326 33.536 189.246 34.656C187.166 35.776 184.814 36.336 182.19 36.336ZM182.19 31.2C184.398 31.2 186.222 30.464 187.662 28.992C189.102 27.52 189.822 25.584 189.822 23.184C189.822 20.784 189.102 18.848 187.662 17.376C186.222 15.904 184.398 15.168 182.19 15.168C179.982 15.168 178.158 15.904 176.718 17.376C175.31 18.848 174.606 20.784 174.606 23.184C174.606 25.584 175.31 27.52 176.718 28.992C178.158 30.464 179.982 31.2 182.19 31.2ZM226.424 10.368V36H220.712V32.736C219.752 33.888 218.552 34.784 217.112 35.424C215.672 36.032 214.12 36.336 212.456 36.336C209.032 36.336 206.328 35.392 204.344 33.504C202.392 31.584 201.416 28.752 201.416 25.008V10.368H207.416V24.192C207.416 26.496 207.928 28.224 208.952 29.376C210.008 30.496 211.496 31.056 213.416 31.056C215.56 31.056 217.256 30.4 218.504 29.088C219.784 27.744 220.424 25.824 220.424 23.328V10.368H226.424ZM246.04 36.336C243.384 36.336 241 35.776 238.888 34.656C236.776 33.536 235.128 31.984 233.944 30C232.76 27.984 232.168 25.712 232.168 23.184C232.168 20.656 232.76 18.4 233.944 16.416C235.128 14.432 236.76 12.88 238.84 11.76C240.952 10.64 243.352 10.08 246.04 10.08C248.568 10.08 250.776 10.592 252.664 11.616C254.584 12.64 256.024 14.112 256.984 16.032L252.376 18.72C251.64 17.536 250.712 16.656 249.592 16.08C248.504 15.472 247.304 15.168 245.992 15.168C243.752 15.168 241.896 15.904 240.424 17.376C238.952 18.816 238.216 20.752 238.216 23.184C238.216 25.616 238.936 27.568 240.376 29.04C241.848 30.48 243.72 31.2 245.992 31.2C247.304 31.2 248.504 30.912 249.592 30.336C250.712 29.728 251.64 28.832 252.376 27.648L256.984 30.336C255.992 32.256 254.536 33.744 252.616 34.8C250.728 35.824 248.536 36.336 246.04 36.336ZM273.315 36.336C270.723 36.336 268.387 35.776 266.307 34.656C264.227 33.536 262.595 31.984 261.411 30C260.259 27.984 259.683 25.712 259.683 23.184C259.683 20.656 260.259 18.4 261.411 16.416C262.595 14.432 264.227 12.88 266.307 11.76C268.387 10.64 270.723 10.08 273.315 10.08C275.939 10.08 278.291 10.64 280.371 11.76C282.451 12.88 284.067 14.432 285.219 16.416C286.403 18.4 286.995 20.656 286.995 23.184C286.995 25.712 286.403 27.984 285.219 30C284.067 31.984 282.451 33.536 280.371 34.656C278.291 35.776 275.939 36.336 273.315 36.336ZM273.315 31.2C275.523 31.2 277.347 30.464 278.787 28.992C280.227 27.52 280.947 25.584 280.947 23.184C280.947 20.784 280.227 18.848 278.787 17.376C277.347 15.904 275.523 15.168 273.315 15.168C271.107 15.168 269.283 15.904 267.843 17.376C266.435 18.848 265.731 20.784 265.731 23.184C265.731 25.584 266.435 27.52 267.843 28.992C269.283 30.464 271.107 31.2 273.315 31.2ZM364.507 76.08C367.739 76.08 370.299 77.024 372.187 78.912C374.075 80.768 375.019 83.568 375.019 87.312V102H369.019V88.08C369.019 85.84 368.523 84.16 367.531 83.04C366.539 81.888 365.115 81.312 363.259 81.312C361.243 81.312 359.627 81.984 358.411 83.328C357.195 84.64 356.587 86.528 356.587 88.992V102H350.587V88.08C350.587 85.84 350.091 84.16 349.099 83.04C348.107 81.888 346.683 81.312 344.827 81.312C342.779 81.312 341.147 81.968 339.931 83.28C338.747 84.592 338.155 86.496 338.155 88.992V102H332.155V76.368H337.867V79.632C338.827 78.48 340.027 77.6 341.467 76.992C342.907 76.384 344.507 76.08 346.267 76.08C348.187 76.08 349.883 76.448 351.355 77.184C352.859 77.888 354.043 78.944 354.907 80.352C355.963 79.008 357.323 77.968 358.987 77.232C360.651 76.464 362.491 76.08 364.507 76.08ZM392.478 76.08C396.254 76.08 399.134 76.992 401.118 78.816C403.134 80.608 404.142 83.328 404.142 86.976V102H398.478V98.88C397.742 100 396.686 100.864 395.31 101.472C393.966 102.048 392.334 102.336 390.414 102.336C388.494 102.336 386.814 102.016 385.374 101.376C383.934 100.704 382.814 99.792 382.014 98.64C381.246 97.456 380.862 96.128 380.862 94.656C380.862 92.352 381.71 90.512 383.406 89.136C385.134 87.728 387.838 87.024 391.518 87.024H398.142V86.64C398.142 84.848 397.598 83.472 396.51 82.512C395.454 81.552 393.87 81.072 391.758 81.072C390.318 81.072 388.894 81.296 387.486 81.744C386.11 82.192 384.942 82.816 383.982 83.616L381.63 79.248C382.974 78.224 384.59 77.44 386.478 76.896C388.366 76.352 390.366 76.08 392.478 76.08ZM391.662 97.968C393.166 97.968 394.494 97.632 395.646 96.96C396.83 96.256 397.662 95.264 398.142 93.984V91.008H391.95C388.494 91.008 386.766 92.144 386.766 94.416C386.766 95.504 387.198 96.368 388.062 97.008C388.926 97.648 390.126 97.968 391.662 97.968ZM411.842 76.368H417.842V102H411.842V76.368ZM414.866 72.144C413.778 72.144 412.866 71.808 412.13 71.136C411.394 70.432 411.026 69.568 411.026 68.544C411.026 67.52 411.394 66.672 412.13 66C412.866 65.296 413.778 64.944 414.866 64.944C415.954 64.944 416.866 65.28 417.602 65.952C418.338 66.592 418.706 67.408 418.706 68.4C418.706 69.456 418.338 70.352 417.602 71.088C416.898 71.792 415.986 72.144 414.866 72.144ZM433.637 102.336C431.557 102.336 429.525 102.064 427.541 101.52C425.557 100.976 423.973 100.288 422.789 99.456L425.093 94.896C426.245 95.664 427.621 96.288 429.221 96.768C430.853 97.216 432.453 97.44 434.021 97.44C437.605 97.44 439.397 96.496 439.397 94.608C439.397 93.712 438.933 93.088 438.005 92.736C437.109 92.384 435.653 92.048 433.637 91.728C431.525 91.408 429.797 91.04 428.453 90.624C427.141 90.208 425.989 89.488 424.997 88.464C424.037 87.408 423.557 85.952 423.557 84.096C423.557 81.664 424.565 79.728 426.581 78.288C428.629 76.816 431.381 76.08 434.837 76.08C436.597 76.08 438.357 76.288 440.117 76.704C441.877 77.088 443.317 77.616 444.437 78.288L442.133 82.848C439.957 81.568 437.509 80.928 434.789 80.928C433.029 80.928 431.685 81.2 430.757 81.744C429.861 82.256 429.413 82.944 429.413 83.808C429.413 84.768 429.893 85.456 430.853 85.872C431.845 86.256 433.365 86.624 435.413 86.976C437.461 87.296 439.141 87.664 440.453 88.08C441.765 88.496 442.885 89.2 443.813 90.192C444.773 91.184 445.253 92.592 445.253 94.416C445.253 96.816 444.213 98.736 442.133 100.176C440.053 101.616 437.221 102.336 433.637 102.336Z" fill="#BE0E02"/>
</svg>
